<?xml version="1.0" encoding="UTF-8" standalone="no"?>
<!-- Created with Inkscape (http://www.inkscape.org/) -->

<svg
   xmlns:dc="http://purl.org/dc/elements/1.1/"
   xmlns:cc="http://creativecommons.org/ns#"
   xmlns:rdf="http://www.w3.org/1999/02/22-rdf-syntax-ns#"
   xmlns:svg="http://www.w3.org/2000/svg"
   xmlns="http://www.w3.org/2000/svg"
   xmlns:sodipodi="http://sodipodi.sourceforge.net/DTD/sodipodi-0.dtd"
   xmlns:inkscape="http://www.inkscape.org/namespaces/inkscape"
   width="210mm"
   height="297mm"
   viewBox="0 0 210 297"
   version="1.1"
   id="svg8"
   inkscape:version="0.92.2 (5c3e80d, 2017-08-06)"
   sodipodi:docname="gogle.svg">
  <defs
     id="defs2" />
  <sodipodi:namedview
     id="base"
     pagecolor="#ffffff"
     bordercolor="#666666"
     borderopacity="1.0"
     inkscape:pageopacity="0.0"
     inkscape:pageshadow="2"
     inkscape:zoom="1.979899"
     inkscape:cx="141.4997"
     inkscape:cy="982.84326"
     inkscape:document-units="mm"
     inkscape:current-layer="layer1"
     showgrid="false"
     inkscape:window-width="1920"
     inkscape:window-height="1001"
     inkscape:window-x="-9"
     inkscape:window-y="-9"
     inkscape:window-maximized="1" />
  <metadata
     id="metadata5">
    <rdf:RDF>
      <cc:Work
         rdf:about="">
        <dc:format>image/svg+xml</dc:format>
        <dc:type
           rdf:resource="http://purl.org/dc/dcmitype/StillImage" />
        <dc:title></dc:title>
      </cc:Work>
    </rdf:RDF>
  </metadata>
  <g
     inkscape:label="Layer 1"
     inkscape:groupmode="layer"
     id="layer1">
    <g
       aria-label="Gogle"
       style="font-style:normal;font-weight:normal;font-size:10.58333302px;line-height:1.25;font-family:sans-serif;letter-spacing:0px;word-spacing:0px;fill:#000000;fill-opacity:1;stroke:none;stroke-width:0.26458332"
       id="text3701">
      <path
         d="m 33.143372,31.505894 h 8.915399 q 0.0762,0.3048 0.127,0.7366 0.0508,0.4318 0.0508,0.8636 0,1.7526 -0.5334,3.302 -0.5334,1.5494 -1.6764,2.7686 -1.2192,1.2954 -2.921,2.0066 -1.701799,0.7112 -3.886199,0.7112 -1.9812,0 -3.7338,-0.7112 -1.7526,-0.7112 -3.048,-1.9812 -1.2954,-1.27 -2.0574,-2.9972 -0.762,-1.7526 -0.762,-3.81 0,-2.0574 0.762,-3.784599 0.762,-1.7526 2.0574,-3.0226 1.2954,-1.27 3.048,-1.9812 1.7526,-0.7112 3.7338,-0.7112 2.2098,0 3.936999,0.762 1.7526,0.762 2.9972,2.1082 l -2.3622,2.3114 q -0.889,-0.9398 -1.981199,-1.4224 -1.0922,-0.508 -2.6162,-0.508 -1.2446,0 -2.3622,0.4572 -1.1176,0.4318 -1.9558,1.2446 -0.8382,0.8128 -1.3462,1.9812 -0.4826,1.142999 -0.4826,2.565399 0,1.4224 0.4826,2.5908 0.508,1.143 1.3462,1.9558 0.8636,0.8128 1.9812,1.27 1.1176,0.4318 2.3876,0.4318 1.4478,0 2.4384,-0.4064 1.015999,-0.4318 1.727199,-1.0922 0.508,-0.4572 0.8636,-1.143 0.381,-0.7112 0.5842,-1.5748 h -5.714999 z"
         style="font-style:normal;font-variant:normal;font-weight:bold;font-stretch:normal;font-size:25.39999962px;font-family:'Product Sans';-inkscape-font-specification:'Product Sans, Bold';font-variant-ligatures:normal;font-variant-caps:normal;font-variant-numeric:normal;font-feature-settings:normal;text-align:start;writing-mode:lr-tb;text-anchor:start;stroke-width:0.26458332"
         id="path3703" />
      <path
         d="m 50.432834,28.635695 q 1.4478,0 2.6416,0.508 1.2192,0.4826 2.0828,1.371599 0.889,0.8636 1.3716,2.0828 0.508,1.2192 0.508,2.667 0,1.4478 -0.508,2.667 -0.4826,1.2192 -1.3716,2.1082 -0.8636,0.8636 -2.0828,1.3716 -1.1938,0.4826 -2.6416,0.4826 -1.4478,0 -2.667,-0.4826 -1.1938,-0.508 -2.0828,-1.3716 -0.8636,-0.889 -1.3716,-2.1082 -0.4826,-1.2192 -0.4826,-2.667 0,-1.4478 0.4826,-2.667 0.508,-1.2192 1.3716,-2.0828 0.889,-0.888999 2.0828,-1.371599 1.2192,-0.508 2.667,-0.508 z m 0,10.185399 q 0.635,0 1.2192,-0.2286 0.6096,-0.254 1.0668,-0.7112 0.4572,-0.4572 0.7112,-1.1176 0.2794,-0.6604 0.2794,-1.4986 0,-0.8382 -0.2794,-1.4986 -0.254,-0.6604 -0.7112,-1.1176 -0.4572,-0.4572 -1.0668,-0.6858 -0.5842,-0.254 -1.2192,-0.254 -0.6604,0 -1.2446,0.254 -0.5842,0.2286 -1.0414,0.6858 -0.4572,0.4572 -0.7366,1.1176 -0.254,0.6604 -0.254,1.4986 0,0.8382 0.254,1.4986 0.2794,0.6604 0.7366,1.1176 0.4572,0.4572 1.0414,0.7112 0.5842,0.2286 1.2446,0.2286 z"
         style="font-style:normal;font-variant:normal;font-weight:bold;font-stretch:normal;font-size:25.39999962px;font-family:'Product Sans';-inkscape-font-specification:'Product Sans, Bold';font-variant-ligatures:normal;font-variant-caps:normal;font-variant-numeric:normal;font-feature-settings:normal;text-align:start;writing-mode:lr-tb;text-anchor:start;stroke-width:0.26458332"
         id="path3705" />
      <path
         d="m 64.915201,47.380894 q -1.3208,0 -2.3622,-0.3556 -1.016,-0.3302 -1.778,-0.889 -0.762,-0.5334 -1.27,-1.1938 -0.508,-0.6604 -0.7366,-1.3208 l 3.175,-1.27 q 0.3556,0.9906 1.1684,1.524 0.8128,0.5588 1.8034,0.5588 1.5748,0 2.4892,-0.9906 0.9144,-0.9652 0.9144,-2.7178 v -0.8636 h -0.2032 q -0.5842,0.8128 -1.5494,1.2954 -0.9398,0.4572 -2.2352,0.4572 -1.1176,0 -2.1844,-0.4572 -1.0414,-0.4572 -1.8542,-1.2954 -0.8128,-0.8636 -1.3208,-2.0574 -0.508,-1.1938 -0.508,-2.667 0,-1.4732 0.508,-2.667 0.508,-1.2192 1.3208,-2.0574 0.8128,-0.863599 1.8542,-1.320799 1.0668,-0.4572 2.1844,-0.4572 1.2954,0 2.2352,0.4826 0.9652,0.4572 1.5494,1.269999 h 0.2032 v -1.346199 h 3.175 v 11.556999 q 0,1.5748 -0.4826,2.8194 -0.4826,1.27 -1.3462,2.1336 -0.8636,0.889 -2.0828,1.3462 -1.1938,0.4826 -2.667,0.4826 z m 0.127,-8.763 q 0.6096,0 1.1938,-0.2286 0.6096,-0.2286 1.0668,-0.6604 0.4572,-0.4572 0.7366,-1.0922 0.2794,-0.6604 0.2794,-1.4986 0,-0.8382 -0.2794,-1.4986 -0.2794,-0.6604 -0.7366,-1.0922 -0.4572,-0.4572 -1.0668,-0.6858 -0.5842,-0.2286 -1.1938,-0.2286 -0.6096,0 -1.1938,0.2286 -0.5842,0.2286 -1.0414,0.6858 -0.4572,0.4572 -0.7366,1.1176 -0.2794,0.635 -0.2794,1.4732 0,0.8382 0.2794,1.4986 0.2794,0.635 0.7366,1.0922 0.4572,0.4318 1.0414,0.6604 0.5842,0.2286 1.1938,0.2286 z"
         style="font-style:normal;font-variant:normal;font-weight:bold;font-stretch:normal;font-size:25.39999962px;font-family:'Product Sans';-inkscape-font-specification:'Product Sans, Bold';font-variant-ligatures:normal;font-variant-caps:normal;font-variant-numeric:normal;font-feature-settings:normal;text-align:start;writing-mode:lr-tb;text-anchor:start;stroke-width:0.26458332"
         id="path3707" />
      <path
         d="M 74.355267,41.488094 V 23.301695 h 3.3274 v 18.186399 z"
         style="font-style:normal;font-variant:normal;font-weight:bold;font-stretch:normal;font-size:25.39999962px;font-family:'Product Sans';-inkscape-font-specification:'Product Sans, Bold';font-variant-ligatures:normal;font-variant-caps:normal;font-variant-numeric:normal;font-feature-settings:normal;text-align:start;writing-mode:lr-tb;text-anchor:start;stroke-width:0.26458332"
         id="path3709" />
      <path
         d="m 92.143602,38.490894 q -0.8636,1.524 -2.3368,2.4638 -1.4478,0.9398 -3.556,0.9398 -1.4224,0 -2.6416,-0.4826 -1.1938,-0.508 -2.0828,-1.397 -0.889,-0.889 -1.397,-2.0828 -0.4826,-1.2192 -0.4826,-2.667 0,-1.3462 0.4826,-2.54 0.4826,-1.2192 1.3462,-2.1082 0.8636,-0.914399 2.032,-1.447799 1.1938,-0.5334 2.6162,-0.5334 1.4986,0 2.667,0.508 1.1684,0.4826 1.9558,1.371599 0.7874,0.8636 1.1938,2.0574 0.4064,1.1938 0.4064,2.5908 0,0.1778 0,0.3048 -0.0254,0.1524 -0.0254,0.2794 -0.0254,0.127 -0.0254,0.2794 h -9.3726 q 0.1016,0.762 0.4064,1.3208 0.3302,0.5334 0.7874,0.9144 0.4826,0.3556 1.0414,0.5334 0.5588,0.1524 1.143,0.1524 1.143,0 1.8796,-0.508 0.762,-0.5334 1.1938,-1.3208 z m -3.0226,-4.826 q -0.0254,-0.3302 -0.2286,-0.7366 -0.1778,-0.4064 -0.5588,-0.762 -0.3556,-0.3556 -0.9144,-0.5842 -0.5334,-0.2286 -1.2954,-0.2286 -1.0668,0 -1.8796,0.6096 -0.8128,0.6096 -1.143,1.7018 z"
         style="font-style:normal;font-variant:normal;font-weight:bold;font-stretch:normal;font-size:25.39999962px;font-family:'Product Sans';-inkscape-font-specification:'Product Sans, Bold';font-variant-ligatures:normal;font-variant-caps:normal;font-variant-numeric:normal;font-feature-settings:normal;text-align:start;writing-mode:lr-tb;text-anchor:start;stroke-width:0.26458332"
         id="path3711" />
    </g>
  </g>
</svg>
