<?xml version="1.0" encoding="UTF-8" standalone="no"?>
<!-- Created with Inkscape (http://www.inkscape.org/) -->

<svg
   xmlns:dc="http://purl.org/dc/elements/1.1/"
   xmlns:cc="http://creativecommons.org/ns#"
   xmlns:rdf="http://www.w3.org/1999/02/22-rdf-syntax-ns#"
   xmlns:svg="http://www.w3.org/2000/svg"
   xmlns="http://www.w3.org/2000/svg"
   xmlns:sodipodi="http://sodipodi.sourceforge.net/DTD/sodipodi-0.dtd"
   xmlns:inkscape="http://www.inkscape.org/namespaces/inkscape"
   width="210mm"
   height="297mm"
   viewBox="0 0 210 297"
   version="1.1"
   id="svg8"
   inkscape:version="0.92.2 (5c3e80d, 2017-08-06)"
   sodipodi:docname="gogle-s.svg">
  <defs
     id="defs2" />
  <sodipodi:namedview
     id="base"
     pagecolor="#ffffff"
     bordercolor="#666666"
     borderopacity="1.0"
     inkscape:pageopacity="0.0"
     inkscape:pageshadow="2"
     inkscape:zoom="1.979899"
     inkscape:cx="141.4997"
     inkscape:cy="982.84326"
     inkscape:document-units="mm"
     inkscape:current-layer="layer1"
     showgrid="false"
     inkscape:window-width="1920"
     inkscape:window-height="1001"
     inkscape:window-x="-9"
     inkscape:window-y="-9"
     inkscape:window-maximized="1" />
  <metadata
     id="metadata5">
    <rdf:RDF>
      <cc:Work
         rdf:about="">
        <dc:format>image/svg+xml</dc:format>
        <dc:type
           rdf:resource="http://purl.org/dc/dcmitype/StillImage" />
        <dc:title></dc:title>
      </cc:Work>
    </rdf:RDF>
  </metadata>
  <g
     inkscape:label="Layer 1"
     inkscape:groupmode="layer"
     id="layer1">
    <g
       aria-label="Gogle"
       style="font-style:normal;font-weight:normal;font-size:10.58333302px;line-height:1.25;font-family:sans-serif;letter-spacing:0px;word-spacing:0px;fill:#000000;fill-opacity:1;stroke:none;stroke-width:0.26458332"
       id="text3701">
      <path
         style="font-style:normal;font-variant:normal;font-weight:bold;font-stretch:normal;font-size:25.39999962px;font-family:'Product Sans';-inkscape-font-specification:'Product Sans, Bold';font-variant-ligatures:normal;font-variant-caps:normal;font-variant-numeric:normal;font-feature-settings:normal;text-align:start;writing-mode:lr-tb;text-anchor:start;stroke-width:0.26458332"
         d="m 33.143372,31.505894 c 2.9718,0 5.943599,0 8.915399,0 0.856086,3.817598 -1.148701,8.239383 -4.903148,9.648183 -4.327218,1.857897 -9.978309,0.228084 -12.291556,-3.973574 -2.398349,-4.03907 -1.2656,-9.795137 2.628598,-12.486515 3.471298,-2.491033 8.639139,-2.456528 11.914198,0.367742 1.260405,0.687654 -0.281945,1.669452 -0.870794,2.286677 -0.475366,0.585641 -0.902104,0.968185 -1.392034,0.102951 -2.907922,-2.377539 -7.979596,-1.40739 -9.502917,2.127554 -1.47076,3.029317 -0.230295,7.256661 3.013736,8.540726 2.754612,1.258011 6.588376,0.343854 7.872229,-2.56996 0.950217,-1.850299 -1.904407,-0.91455 -2.839358,-1.120963 -0.914615,-0.231143 -2.94389,0.659751 -2.544353,-0.880879 0,-0.680644 0,-1.361315 0,-2.041942 z"
         id="path3703"
         inkscape:connector-curvature="0" />
      <path
         style="font-style:normal;font-variant:normal;font-weight:bold;font-stretch:normal;font-size:25.39999962px;font-family:'Product Sans';-inkscape-font-specification:'Product Sans, Bold';font-variant-ligatures:normal;font-variant-caps:normal;font-variant-numeric:normal;font-feature-settings:normal;text-align:start;writing-mode:lr-tb;text-anchor:start;stroke-width:0.26458332"
         d="m 50.432834,28.635695 c 2.381431,-0.191041 4.634569,1.314968 5.768626,3.34746 1.060682,1.811835 1.288937,4.159804 0.314628,6.057799 -1.113794,2.703485 -4.220689,4.225935 -7.058342,3.857679 -1.943815,-0.220942 -3.717032,-1.435005 -4.732333,-3.090059 -1.703247,-2.835398 -1.048152,-6.945001 1.675097,-8.913354 1.154519,-0.857888 2.586486,-1.352599 4.032324,-1.259525 z m 0,10.185399 c 1.260935,0.08777 2.440913,-0.762352 2.896984,-1.915727 0.639256,-1.490515 0.458801,-3.472192 -0.832499,-4.564336 -0.970498,-0.768626 -2.410786,-0.854186 -3.506649,-0.309619 -2.143757,1.137752 -2.527171,4.55292 -0.6298,6.094926 0.579324,0.477001 1.32492,0.724809 2.071964,0.694756 z"
         id="path3705"
         inkscape:connector-curvature="0" />
      <path
         style="font-style:normal;font-variant:normal;font-weight:bold;font-stretch:normal;font-size:25.39999962px;font-family:'Product Sans';-inkscape-font-specification:'Product Sans, Bold';font-variant-ligatures:normal;font-variant-caps:normal;font-variant-numeric:normal;font-feature-settings:normal;text-align:start;writing-mode:lr-tb;text-anchor:start;stroke-width:0.26458332"
         d="m 64.915201,47.380894 c -2.49627,0.06661 -5.177707,-1.282997 -6.102387,-3.69929 0.886832,-0.539195 1.915466,-0.766664 2.837689,-1.231483 0.83127,0.208843 0.837204,1.47964 1.801845,1.630728 1.568953,0.805629 3.852665,0.23203 4.507229,-1.505725 0.254112,-0.683655 0.762595,-2.115857 0.04412,-2.496081 -0.519412,0.522941 -1.087884,0.984112 -1.802432,1.223553 -2.302018,0.885919 -5.061911,-0.09283 -6.454288,-2.09054 -2.19037,-2.918441 -1.530374,-7.60367 1.535412,-9.65576 1.825294,-1.208649 4.466421,-1.300358 6.189356,0.14786 0.217731,0.62849 1.241544,0.688072 0.810711,-0.167936 0.0187,-0.89709 1.294283,-0.352341 1.873913,-0.484554 0.722215,-0.114612 1.637456,-0.08439 1.332301,0.876816 -0.02267,3.983722 0.08323,7.970589 -0.068,11.952038 -0.308723,2.605459 -2.375629,4.989881 -5.023729,5.363959 -0.487672,0.09504 -0.985048,0.139522 -1.481739,0.136415 z m 0.127,-8.763 c 1.934847,0.08053 3.536489,-1.876182 3.287166,-3.753223 -0.04975,-1.823813 -1.774712,-3.510591 -3.640546,-3.222145 -1.767768,0.187311 -3.083271,1.95909 -2.917669,3.699986 0.06645,1.704199 1.481806,3.363251 3.271049,3.275382 z"
         id="path3707"
         inkscape:connector-curvature="0" />
      <path
         style="font-style:normal;font-variant:normal;font-weight:bold;font-stretch:normal;font-size:25.39999962px;font-family:'Product Sans';-inkscape-font-specification:'Product Sans, Bold';font-variant-ligatures:normal;font-variant-caps:normal;font-variant-numeric:normal;font-feature-settings:normal;text-align:start;writing-mode:lr-tb;text-anchor:start;stroke-width:0.26458332"
         d="m 74.355267,41.488094 c 0,-6.062133 0,-12.124266 0,-18.186399 1.109133,0 2.218267,0 3.3274,0 0,6.062133 0,12.124266 0,18.186399 -1.109133,0 -2.218267,0 -3.3274,0 z"
         id="path3709"
         inkscape:connector-curvature="0" />
      <path
         style="font-style:normal;font-variant:normal;font-weight:bold;font-stretch:normal;font-size:25.39999962px;font-family:'Product Sans';-inkscape-font-specification:'Product Sans, Bold';font-variant-ligatures:normal;font-variant-caps:normal;font-variant-numeric:normal;font-feature-settings:normal;text-align:start;writing-mode:lr-tb;text-anchor:start;stroke-width:0.26458332"
         d="m 92.143602,38.490894 c -1.182963,2.217437 -3.720719,3.616621 -6.229552,3.407375 -2.694238,-0.04895 -5.269454,-1.950423 -5.990897,-4.568282 -0.904916,-2.916683 0.340595,-6.436514 3.075274,-7.904233 2.570051,-1.426271 6.20824,-0.952523 8.041108,1.442933 1.110008,1.453725 1.44527,3.369884 1.256467,5.158407 -3.1242,0 -6.2484,0 -9.3726,0 0.09517,1.656521 1.678466,3.014767 3.322961,2.928705 1.228587,0.05503 2.474105,-0.618615 3.053778,-1.711803 0.499776,-0.09921 0.875183,0.359393 1.325892,0.495074 0.505856,0.250608 1.011713,0.501216 1.517569,0.751824 z m -3.0226,-4.826 c -0.205546,-1.624764 -2.041196,-2.594361 -3.560617,-2.273805 -1.164202,0.201466 -2.170575,1.126641 -2.459183,2.273805 2.0066,0 4.0132,0 6.0198,0 z"
         id="path3711"
         inkscape:connector-curvature="0" />
    </g>
  </g>
</svg>
