  0
SECTION
  2
BLOCKS
  0
ENDSEC
  0
SECTION
  2
ENTITIES
  0
LINE
  8
0
 10
8.77374
 20
-0.358932
 11
10.12
 21
0.166245
  0
LINE
  8
0
 10
10.12
 20
0.166245
 11
11.3077
 21
1.04155
  0
LINE
  8
0
 10
11.3077
 20
1.04155
 11
12.337
 21
2.267
  0
LINE
  8
0
 10
12.337
 20
2.267
 11
12.471
 21
2.267
  0
LINE
  8
0
 10
12.471
 20
2.267
 11
12.471
 21
0
  0
LINE
  8
0
 10
12.471
 20
0
 11
15.405
 21
0
  0
LINE
  8
0
 10
15.405
 20
0
 11
15.405
 21
10.07
  0
LINE
  8
0
 10
15.405
 20
10.07
 11
15.282
 21
11.5695
  0
LINE
  8
0
 10
15.282
 20
11.5695
 11
14.913
 21
12.9002
  0
LINE
  8
0
 10
14.913
 20
12.9002
 11
14.298
 21
14.0621
  0
LINE
  8
0
 10
14.298
 20
14.0621
 11
13.437
 21
15.055
  0
LINE
  8
0
 10
13.437
 20
15.055
 11
12.3639
 21
15.8499
  0
LINE
  8
0
 10
12.3639
 20
15.8499
 11
11.1115
 21
16.4177
  0
LINE
  8
0
 10
11.1115
 20
16.4177
 11
9.67987
 21
16.7584
  0
LINE
  8
0
 10
9.67987
 20
16.7584
 11
8.06898
 21
16.872
  0
LINE
  8
0
 10
8.06898
 20
16.872
 11
6.01837
 21
16.6719
  0
LINE
  8
0
 10
6.01837
 20
16.6719
 11
4.2345
 21
16.0717
  0
LINE
  8
0
 10
4.2345
 20
16.0717
 11
2.71736
 21
15.0714
  0
LINE
  8
0
 10
2.71736
 20
15.0714
 11
1.467
 21
13.671
  0
LINE
  8
0
 10
1.467
 20
13.671
 11
4.168
 21
11.97
  0
LINE
  8
0
 10
4.168
 20
11.97
 11
4.98474
 21
12.9185
  0
LINE
  8
0
 10
4.98474
 20
12.9185
 11
5.935
 21
13.596
  0
LINE
  8
0
 10
5.935
 20
13.596
 11
7.01874
 21
14.0025
  0
LINE
  8
0
 10
7.01874
 20
14.0025
 11
8.23599
 21
14.138
  0
LINE
  8
0
 10
8.23599
 20
14.138
 11
9.05937
 21
14.0682
  0
LINE
  8
0
 10
9.05937
 20
14.0682
 11
9.82849
 21
13.8587
  0
LINE
  8
0
 10
9.82849
 20
13.8587
 11
10.5434
 21
13.5097
  0
LINE
  8
0
 10
10.5434
 20
13.5097
 11
11.204
 21
13.021
  0
LINE
  8
0
 10
11.204
 20
13.021
 11
11.7583
 21
12.4322
  0
LINE
  8
0
 10
11.7583
 20
12.4322
 11
12.1542
 21
11.783
  0
LINE
  8
0
 10
12.1542
 20
11.783
 11
12.3918
 21
11.0732
  0
LINE
  8
0
 10
12.3918
 20
11.0732
 11
12.471
 21
10.303
  0
LINE
  8
0
 10
12.471
 20
10.303
 11
12.471
 21
9.603
  0
LINE
  8
0
 10
12.471
 20
9.603
 11
11.5266
 21
10.0405
  0
LINE
  8
0
 10
11.5266
 20
10.0405
 11
10.4615
 21
10.353
  0
LINE
  8
0
 10
10.4615
 20
10.353
 11
9.27562
 21
10.5405
  0
LINE
  8
0
 10
9.27562
 20
10.5405
 11
7.96899
 21
10.603
  0
LINE
  8
0
 10
7.96899
 20
10.603
 11
6.44875
 21
10.5092
  0
LINE
  8
0
 10
6.44875
 20
10.5092
 11
5.08899
 21
10.2277
  0
LINE
  8
0
 10
5.08899
 20
10.2277
 11
3.88974
 21
9.75868
  0
LINE
  8
0
 10
3.88974
 20
9.75868
 11
2.851
 21
9.10199
  0
LINE
  8
0
 10
2.851
 20
9.10199
 11
2.0123
 21
8.28737
  0
LINE
  8
0
 10
2.0123
 20
8.28737
 11
1.41324
 21
7.34349
  0
LINE
  8
0
 10
1.41324
 20
7.34349
 11
1.0538
 21
6.27037
  0
LINE
  8
0
 10
1.0538
 20
6.27037
 11
0.93399
 21
5.06799
  0
LINE
  8
0
 10
0.93399
 20
5.06799
 11
1.04756
 21
3.91792
  0
LINE
  8
0
 10
1.04756
 20
3.91792
 11
1.38824
 21
2.86774
  0
LINE
  8
0
 10
1.38824
 20
2.86774
 11
1.95605
 21
1.91743
  0
LINE
  8
0
 10
1.95605
 20
1.91743
 11
2.75099
 21
1.06699
  0
LINE
  8
0
 10
2.75099
 20
1.06699
 11
3.71474
 21
0.366562
  0
LINE
  8
0
 10
3.71474
 20
0.366562
 11
4.78899
 21
-0.133743
  0
LINE
  8
0
 10
4.78899
 20
-0.133743
 11
5.97374
 21
-0.433929
  0
LINE
  8
0
 10
5.97374
 20
-0.433929
 11
7.269
 21
-0.533997
  0
LINE
  8
0
 10
7.269
 20
-0.533997
 11
8.77374
 21
-0.358932
  0
LINE
  8
0
 10
6.84036
 20
2.25099
 11
6.22249
 21
2.40099
  0
LINE
  8
0
 10
6.22249
 20
2.40099
 11
5.64836
 21
2.65099
  0
LINE
  8
0
 10
5.64836
 20
2.65099
 11
5.118
 21
3.00099
  0
LINE
  8
0
 10
5.118
 20
3.00099
 11
4.67305
 21
3.42606
  0
LINE
  8
0
 10
4.67305
 20
3.42606
 11
4.35524
 21
3.90125
  0
LINE
  8
0
 10
4.35524
 20
3.90125
 11
4.16455
 21
4.42656
  0
LINE
  8
0
 10
4.16455
 20
4.42656
 11
4.101
 21
5.002
  0
LINE
  8
0
 10
4.101
 20
5.002
 11
4.17912
 21
5.64143
  0
LINE
  8
0
 10
4.17912
 20
5.64143
 11
4.4135
 21
6.22675
  0
LINE
  8
0
 10
4.4135
 20
6.22675
 11
4.80412
 21
6.75793
  0
LINE
  8
0
 10
4.80412
 20
6.75793
 11
5.351
 21
7.23499
  0
LINE
  8
0
 10
5.351
 20
7.23499
 11
6.015
 21
7.62918
  0
LINE
  8
0
 10
6.015
 20
7.62918
 11
6.756
 21
7.91074
  0
LINE
  8
0
 10
6.756
 20
7.91074
 11
7.57399
 21
8.07968
  0
LINE
  8
0
 10
7.57399
 20
8.07968
 11
8.46899
 21
8.13599
  0
LINE
  8
0
 10
8.46899
 20
8.13599
 11
9.68211
 21
8.06512
  0
LINE
  8
0
 10
9.68211
 20
8.06512
 11
10.7535
 21
7.85249
  0
LINE
  8
0
 10
10.7535
 20
7.85249
 11
11.6831
 21
7.49812
  0
LINE
  8
0
 10
11.6831
 20
7.49812
 11
12.471
 21
7.002
  0
LINE
  8
0
 10
12.471
 20
7.002
 11
12.3761
 21
6.06624
  0
LINE
  8
0
 10
12.3761
 20
6.06624
 11
12.0915
 21
5.19299
  0
LINE
  8
0
 10
12.0915
 20
5.19299
 11
11.6171
 21
4.38225
  0
LINE
  8
0
 10
11.6171
 20
4.38225
 11
10.953
 21
3.63399
  0
LINE
  8
0
 10
10.953
 20
3.63399
 11
10.1684
 21
3.00705
  0
LINE
  8
0
 10
10.1684
 20
3.00705
 11
9.33174
 21
2.55925
  0
LINE
  8
0
 10
9.33174
 20
2.55925
 11
8.44293
 21
2.29056
  0
LINE
  8
0
 10
8.44293
 20
2.29056
 11
7.502
 21
2.20099
  0
LINE
  8
0
 10
7.502
 20
2.20099
 11
6.84036
 21
2.25099
  0
ENDSEC
  0
SECTION
  2
OBJECTS
  0
DICTIONARY
  0
ENDSEC
  0
EOF
