  0
SECTION
  2
BLOCKS
  0
ENDSEC
  0
SECTION
  2
ENTITIES
  0
LINE
  8
0
 10
4.935
 20
8.903
 11
5.01518
 21
9.90417
  0
LINE
  8
0
 10
5.01518
 20
9.90417
 11
5.25574
 21
10.8407
  0
LINE
  8
0
 10
5.25574
 20
10.8407
 11
5.65668
 21
11.7127
  0
LINE
  8
0
 10
5.65668
 20
11.7127
 11
6.21799
 21
12.52
  0
LINE
  8
0
 10
6.21799
 20
12.52
 11
6.8965
 21
13.1985
  0
LINE
  8
0
 10
6.8965
 20
13.1985
 11
7.64799
 21
13.6832
  0
LINE
  8
0
 10
7.64799
 20
13.6832
 11
8.47249
 21
13.9741
  0
LINE
  8
0
 10
8.47249
 20
13.9741
 11
9.37
 21
14.071
  0
LINE
  8
0
 10
9.37
 20
14.071
 11
11.0767
 21
13.7959
  0
LINE
  8
0
 10
11.0767
 20
13.7959
 11
12.2957
 21
12.9707
  0
LINE
  8
0
 10
12.2957
 20
12.9707
 11
13.0272
 21
11.5954
  0
LINE
  8
0
 10
13.0272
 20
11.5954
 11
13.271
 21
9.67
  0
LINE
  8
0
 10
13.271
 20
9.67
 11
13.271
 21
0
  0
LINE
  8
0
 10
13.271
 20
0
 11
16.339
 21
0
  0
LINE
  8
0
 10
16.339
 20
0
 11
16.339
 21
10.27
  0
LINE
  8
0
 10
16.339
 20
10.27
 11
16.2379
 21
11.7633
  0
LINE
  8
0
 10
16.2379
 20
11.7633
 11
15.9345
 21
13.0752
  0
LINE
  8
0
 10
15.9345
 20
13.0752
 11
15.4289
 21
14.2058
  0
LINE
  8
0
 10
15.4289
 20
14.2058
 11
14.721
 21
15.155
  0
LINE
  8
0
 10
14.721
 20
15.155
 11
13.826
 21
15.9062
  0
LINE
  8
0
 10
13.826
 20
15.9062
 11
12.758
 21
16.4427
  0
LINE
  8
0
 10
12.758
 20
16.4427
 11
11.517
 21
16.7647
  0
LINE
  8
0
 10
11.517
 20
16.7647
 11
10.103
 21
16.872
  0
LINE
  8
0
 10
10.103
 20
16.872
 11
9.32674
 21
16.822
  0
LINE
  8
0
 10
9.32674
 20
16.822
 11
8.56499
 21
16.672
  0
LINE
  8
0
 10
8.56499
 20
16.672
 11
7.81775
 21
16.422
  0
LINE
  8
0
 10
7.81775
 20
16.422
 11
7.08499
 21
16.072
  0
LINE
  8
0
 10
7.08499
 20
16.072
 11
6.40686
 21
15.6469
  0
LINE
  8
0
 10
6.40686
 20
15.6469
 11
5.82249
 21
15.1717
  0
LINE
  8
0
 10
5.82249
 20
15.1717
 11
5.33186
 21
14.6464
  0
LINE
  8
0
 10
5.33186
 20
14.6464
 11
4.935
 21
14.071
  0
LINE
  8
0
 10
4.935
 20
14.071
 11
4.80199
 21
14.071
  0
LINE
  8
0
 10
4.80199
 20
14.071
 11
4.935
 21
16.339
  0
LINE
  8
0
 10
4.935
 20
16.339
 11
4.935
 21
23.874
  0
LINE
  8
0
 10
4.935
 20
23.874
 11
1.86699
 21
23.874
  0
LINE
  8
0
 10
1.86699
 20
23.874
 11
1.86699
 21
0
  0
LINE
  8
0
 10
1.86699
 20
0
 11
4.935
 21
0
  0
LINE
  8
0
 10
4.935
 20
0
 11
4.935
 21
8.903
  0
ENDSEC
  0
SECTION
  2
OBJECTS
  0
DICTIONARY
  0
ENDSEC
  0
EOF
