  0
SECTION
  2
BLOCKS
  0
ENDSEC
  0
SECTION
  2
ENTITIES
  0
LINE
  8
0
 10
11.0742
 20
-0.379745
 11
12.654
 21
0.0829926
  0
LINE
  8
0
 10
12.654
 20
0.0829926
 11
14.0752
 21
0.854248
  0
LINE
  8
0
 10
14.0752
 20
0.854248
 11
15.338
 21
1.93399
  0
LINE
  8
0
 10
15.338
 20
1.93399
 11
16.3884
 21
3.23643
  0
LINE
  8
0
 10
16.3884
 20
3.23643
 11
17.1387
 21
4.70975
  0
LINE
  8
0
 10
17.1387
 20
4.70975
 11
17.5889
 21
6.35393
  0
LINE
  8
0
 10
17.5889
 20
6.35393
 11
17.739
 21
8.16899
  0
LINE
  8
0
 10
17.739
 20
8.16899
 11
17.5889
 21
9.97174
  0
LINE
  8
0
 10
17.5889
 20
9.97174
 11
17.1387
 21
11.612
  0
LINE
  8
0
 10
17.1387
 20
11.612
 11
16.3884
 21
13.0897
  0
LINE
  8
0
 10
16.3884
 20
13.0897
 11
15.338
 21
14.405
  0
LINE
  8
0
 10
15.338
 20
14.405
 11
14.0752
 21
15.4843
  0
LINE
  8
0
 10
14.0752
 20
15.4843
 11
12.654
 21
16.2552
  0
LINE
  8
0
 10
12.654
 20
16.2552
 11
11.0742
 21
16.7178
  0
LINE
  8
0
 10
11.0742
 20
16.7178
 11
9.336
 21
16.872
  0
LINE
  8
0
 10
9.336
 20
16.872
 11
7.59605
 21
16.7178
  0
LINE
  8
0
 10
7.59605
 20
16.7178
 11
6.01024
 21
16.2552
  0
LINE
  8
0
 10
6.01024
 20
16.2552
 11
4.57855
 21
15.4843
  0
LINE
  8
0
 10
4.57855
 20
15.4843
 11
3.30099
 21
14.405
  0
LINE
  8
0
 10
3.30099
 20
14.405
 11
2.26543
 21
13.0897
  0
LINE
  8
0
 10
2.26543
 20
13.0897
 11
1.52574
 21
11.612
  0
LINE
  8
0
 10
1.52574
 20
11.612
 11
1.08192
 21
9.97174
  0
LINE
  8
0
 10
1.08192
 20
9.97174
 11
0.93399
 21
8.16899
  0
LINE
  8
0
 10
0.93399
 20
8.16899
 11
1.08192
 21
6.3663
  0
LINE
  8
0
 10
1.08192
 20
6.3663
 11
1.52574
 21
4.72624
  0
LINE
  8
0
 10
1.52574
 20
4.72624
 11
2.26543
 21
3.24881
  0
LINE
  8
0
 10
2.26543
 20
3.24881
 11
3.30099
 21
1.93399
  0
LINE
  8
0
 10
3.30099
 20
1.93399
 11
4.57855
 21
0.854248
  0
LINE
  8
0
 10
4.57855
 20
0.854248
 11
6.01024
 21
0.0829926
  0
LINE
  8
0
 10
6.01024
 20
0.0829926
 11
7.59605
 21
-0.379745
  0
LINE
  8
0
 10
7.59605
 20
-0.379745
 11
9.336
 21
-0.533997
  0
LINE
  8
0
 10
9.336
 20
-0.533997
 11
11.0742
 21
-0.379745
  0
LINE
  8
0
 10
8.24831
 20
2.36911
 11
7.25224
 21
2.67549
  0
LINE
  8
0
 10
7.25224
 20
2.67549
 11
6.34781
 21
3.18611
  0
LINE
  8
0
 10
6.34781
 20
3.18611
 11
5.53499
 21
3.90099
  0
LINE
  8
0
 10
5.53499
 20
3.90099
 11
4.86386
 21
4.78049
  0
LINE
  8
0
 10
4.86386
 20
4.78049
 11
4.38449
 21
5.78499
  0
LINE
  8
0
 10
4.38449
 20
5.78499
 11
4.09686
 21
6.91449
  0
LINE
  8
0
 10
4.09686
 20
6.91449
 11
4.00099
 21
8.16899
  0
LINE
  8
0
 10
4.00099
 20
8.16899
 11
4.09686
 21
9.40906
  0
LINE
  8
0
 10
4.09686
 20
9.40906
 11
4.38449
 21
10.5282
  0
LINE
  8
0
 10
4.38449
 20
10.5282
 11
4.86386
 21
11.5266
  0
LINE
  8
0
 10
4.86386
 20
11.5266
 11
5.53499
 21
12.404
  0
LINE
  8
0
 10
5.53499
 20
12.404
 11
6.36018
 21
13.1333
  0
LINE
  8
0
 10
6.36018
 20
13.1333
 11
7.26874
 21
13.6542
  0
LINE
  8
0
 10
7.26874
 20
13.6542
 11
8.26068
 21
13.9668
  0
LINE
  8
0
 10
8.26068
 20
13.9668
 11
9.336
 21
14.071
  0
LINE
  8
0
 10
9.336
 20
14.071
 11
10.4114
 21
13.9668
  0
LINE
  8
0
 10
10.4114
 20
13.9668
 11
11.4035
 21
13.6542
  0
LINE
  8
0
 10
11.4035
 20
13.6542
 11
12.3124
 21
13.1333
  0
LINE
  8
0
 10
12.3124
 20
13.1333
 11
13.138
 21
12.404
  0
LINE
  8
0
 10
13.138
 20
12.404
 11
13.8087
 21
11.5266
  0
LINE
  8
0
 10
13.8087
 20
11.5266
 11
14.2877
 21
10.5282
  0
LINE
  8
0
 10
14.2877
 20
10.5282
 11
14.5752
 21
9.40906
  0
LINE
  8
0
 10
14.5752
 20
9.40906
 11
14.671
 21
8.16899
  0
LINE
  8
0
 10
14.671
 20
8.16899
 11
14.5752
 21
6.91449
  0
LINE
  8
0
 10
14.5752
 20
6.91449
 11
14.2877
 21
5.78499
  0
LINE
  8
0
 10
14.2877
 20
5.78499
 11
13.8087
 21
4.78049
  0
LINE
  8
0
 10
13.8087
 20
4.78049
 11
13.138
 21
3.90099
  0
LINE
  8
0
 10
13.138
 20
3.90099
 11
12.3251
 21
3.18611
  0
LINE
  8
0
 10
12.3251
 20
3.18611
 11
11.4205
 21
2.67549
  0
LINE
  8
0
 10
11.4205
 20
2.67549
 11
10.4241
 21
2.36911
  0
LINE
  8
0
 10
10.4241
 20
2.36911
 11
9.336
 21
2.267
  0
LINE
  8
0
 10
9.336
 20
2.267
 11
8.24831
 21
2.36911
  0
ENDSEC
  0
SECTION
  2
OBJECTS
  0
DICTIONARY
  0
ENDSEC
  0
EOF
