  0
SECTION
  2
BLOCKS
  0
ENDSEC
  0
SECTION
  2
ENTITIES
  0
LINE
  8
0
 10
9.159
 20
-0.442307
 11
10.395
 21
-0.167236
  0
LINE
  8
0
 10
10.395
 20
-0.167236
 11
11.51
 21
0.291183
  0
LINE
  8
0
 10
11.51
 20
0.291183
 11
12.504
 21
0.932999
  0
LINE
  8
0
 10
12.504
 20
0.932999
 11
13.3208
 21
1.70862
  0
LINE
  8
0
 10
13.3208
 20
1.70862
 11
13.9042
 21
2.56749
  0
LINE
  8
0
 10
13.9042
 20
2.56749
 11
14.2543
 21
3.50961
  0
LINE
  8
0
 10
14.2543
 20
3.50961
 11
14.371
 21
4.53499
  0
LINE
  8
0
 10
14.371
 20
4.53499
 11
14.0667
 21
6.22919
  0
LINE
  8
0
 10
14.0667
 20
6.22919
 11
13.154
 21
7.61075
  0
LINE
  8
0
 10
13.154
 20
7.61075
 11
11.6327
 21
8.67969
  0
LINE
  8
0
 10
11.6327
 20
8.67969
 11
9.50299
 21
9.43599
  0
LINE
  8
0
 10
9.50299
 20
9.43599
 11
7.036
 21
10.07
  0
LINE
  8
0
 10
7.036
 20
10.07
 11
5.88318
 21
10.4201
  0
LINE
  8
0
 10
5.88318
 20
10.4201
 11
5.05974
 21
10.8702
  0
LINE
  8
0
 10
5.05974
 20
10.8702
 11
4.56567
 21
11.4205
  0
LINE
  8
0
 10
4.56567
 20
11.4205
 11
4.40099
 21
12.071
  0
LINE
  8
0
 10
4.40099
 20
12.071
 11
4.46037
 21
12.4874
  0
LINE
  8
0
 10
4.46037
 20
12.4874
 11
4.63849
 21
12.8705
  0
LINE
  8
0
 10
4.63849
 20
12.8705
 11
4.93536
 21
13.2204
  0
LINE
  8
0
 10
4.93536
 20
13.2204
 11
5.351
 21
13.537
  0
LINE
  8
0
 10
5.351
 20
13.537
 11
5.84206
 21
13.7999
  0
LINE
  8
0
 10
5.84206
 20
13.7999
 11
6.36424
 21
13.9877
  0
LINE
  8
0
 10
6.36424
 20
13.9877
 11
6.91756
 21
14.1004
  0
LINE
  8
0
 10
6.91756
 20
14.1004
 11
7.502
 21
14.138
  0
LINE
  8
0
 10
7.502
 20
14.138
 11
8.13681
 21
14.1015
  0
LINE
  8
0
 10
8.13681
 20
14.1015
 11
8.74025
 21
13.992
  0
LINE
  8
0
 10
8.74025
 20
13.992
 11
9.3123
 21
13.8095
  0
LINE
  8
0
 10
9.3123
 20
13.8095
 11
9.853
 21
13.554
  0
LINE
  8
0
 10
9.853
 20
13.554
 11
10.3416
 21
13.2343
  0
LINE
  8
0
 10
10.3416
 20
13.2343
 11
10.7572
 21
12.8582
  0
LINE
  8
0
 10
10.7572
 20
12.8582
 11
11.1001
 21
12.4258
  0
LINE
  8
0
 10
11.1001
 20
12.4258
 11
11.37
 21
11.937
  0
LINE
  8
0
 10
11.37
 20
11.937
 11
14.105
 21
13.071
  0
LINE
  8
0
 10
14.105
 20
13.071
 11
13.6889
 21
13.8942
  0
LINE
  8
0
 10
13.6889
 20
13.8942
 11
13.1415
 21
14.6297
  0
LINE
  8
0
 10
13.1415
 20
14.6297
 11
12.4629
 21
15.2777
  0
LINE
  8
0
 10
12.4629
 20
15.2777
 11
11.653
 21
15.838
  0
LINE
  8
0
 10
11.653
 20
15.838
 11
10.7519
 21
16.2904
  0
LINE
  8
0
 10
10.7519
 20
16.2904
 11
9.79874
 21
16.6135
  0
LINE
  8
0
 10
9.79874
 20
16.6135
 11
8.79343
 21
16.8074
  0
LINE
  8
0
 10
8.79343
 20
16.8074
 11
7.73599
 21
16.872
  0
LINE
  8
0
 10
7.73599
 20
16.872
 11
6.38249
 21
16.7876
  0
LINE
  8
0
 10
6.38249
 20
16.7876
 11
5.15599
 21
16.5342
  0
LINE
  8
0
 10
5.15599
 20
16.5342
 11
4.05649
 21
16.1121
  0
LINE
  8
0
 10
4.05649
 20
16.1121
 11
3.084
 21
15.521
  0
LINE
  8
0
 10
3.084
 20
15.521
 11
2.28906
 21
14.7907
  0
LINE
  8
0
 10
2.28906
 20
14.7907
 11
1.72124
 21
13.95
  0
LINE
  8
0
 10
1.72124
 20
13.95
 11
1.38055
 21
12.9987
  0
LINE
  8
0
 10
1.38055
 20
12.9987
 11
1.267
 21
11.937
  0
LINE
  8
0
 10
1.267
 20
11.937
 11
1.56499
 21
10.3741
  0
LINE
  8
0
 10
1.56499
 20
10.3741
 11
2.459
 21
9.08624
  0
LINE
  8
0
 10
2.459
 20
9.08624
 11
3.94899
 21
8.07355
  0
LINE
  8
0
 10
3.94899
 20
8.07355
 11
6.03499
 21
7.336
  0
LINE
  8
0
 10
6.03499
 20
7.336
 11
8.836
 21
6.63499
  0
LINE
  8
0
 10
8.836
 20
6.63499
 11
9.88643
 21
6.21637
  0
LINE
  8
0
 10
9.88643
 20
6.21637
 11
10.6367
 21
5.6935
  0
LINE
  8
0
 10
10.6367
 20
5.6935
 11
11.0869
 21
5.06636
  0
LINE
  8
0
 10
11.0869
 20
5.06636
 11
11.237
 21
4.33499
  0
LINE
  8
0
 10
11.237
 20
4.33499
 11
11.1755
 21
3.91606
  0
LINE
  8
0
 10
11.1755
 20
3.91606
 11
10.991
 21
3.52625
  0
LINE
  8
0
 10
10.991
 20
3.52625
 11
10.6835
 21
3.16556
  0
LINE
  8
0
 10
10.6835
 20
3.16556
 11
10.253
 21
2.834
  0
LINE
  8
0
 10
10.253
 20
2.834
 11
9.73119
 21
2.55705
  0
LINE
  8
0
 10
9.73119
 20
2.55705
 11
9.14874
 21
2.35924
  0
LINE
  8
0
 10
9.14874
 20
2.35924
 11
8.50568
 21
2.24055
  0
LINE
  8
0
 10
8.50568
 20
2.24055
 11
7.80199
 21
2.20099
  0
LINE
  8
0
 10
7.80199
 20
2.20099
 11
7.13205
 21
2.25206
  0
LINE
  8
0
 10
7.13205
 20
2.25206
 11
6.48924
 21
2.40524
  0
LINE
  8
0
 10
6.48924
 20
2.40524
 11
5.87355
 21
2.66055
  0
LINE
  8
0
 10
5.87355
 20
2.66055
 11
5.28499
 21
3.01799
  0
LINE
  8
0
 10
5.28499
 20
3.01799
 11
4.74431
 21
3.46712
  0
LINE
  8
0
 10
4.74431
 20
3.46712
 11
4.27225
 21
3.9975
  0
LINE
  8
0
 10
4.27225
 20
3.9975
 11
3.8688
 21
4.60912
  0
LINE
  8
0
 10
3.8688
 20
4.60912
 11
3.534
 21
5.30199
  0
LINE
  8
0
 10
3.534
 20
5.30199
 11
0.799988
 21
4.13499
  0
LINE
  8
0
 10
0.799988
 20
4.13499
 11
1.26712
 21
3.13556
  0
LINE
  8
0
 10
1.26712
 20
3.13556
 11
1.86749
 21
2.23824
  0
LINE
  8
0
 10
1.86749
 20
2.23824
 11
2.60112
 21
1.44305
  0
LINE
  8
0
 10
2.60112
 20
1.44305
 11
3.46799
 21
0.75
  0
LINE
  8
0
 10
3.46799
 20
0.75
 11
4.439
 21
0.188248
  0
LINE
  8
0
 10
4.439
 20
0.188248
 11
5.48499
 21
-0.212997
  0
LINE
  8
0
 10
5.48499
 20
-0.212997
 11
6.60599
 21
-0.453735
  0
LINE
  8
0
 10
6.60599
 20
-0.453735
 11
7.80199
 21
-0.533997
  0
LINE
  8
0
 10
7.80199
 20
-0.533997
 11
9.159
 21
-0.442307
  0
ENDSEC
  0
SECTION
  2
OBJECTS
  0
DICTIONARY
  0
ENDSEC
  0
EOF
