  0
SECTION
  2
BLOCKS
  0
ENDSEC
  0
SECTION
  2
ENTITIES
  0
LINE
  8
0
 10
9.11143
 20
-0.239868
 11
9.83675
 21
-0.158493
  0
LINE
  8
0
 10
9.83675
 20
-0.158493
 11
10.5119
 21
-0.0228729
  0
LINE
  8
0
 10
10.5119
 20
-0.0228729
 11
11.137
 21
0.166992
  0
LINE
  8
0
 10
11.137
 20
0.166992
 11
10.17
 21
2.90099
  0
LINE
  8
0
 10
10.17
 20
2.90099
 11
10.0169
 21
2.83755
  0
LINE
  8
0
 10
10.0169
 20
2.83755
 11
9.8575
 21
2.78024
  0
LINE
  8
0
 10
9.8575
 20
2.78024
 11
9.69186
 21
2.72905
  0
LINE
  8
0
 10
9.69186
 20
2.72905
 11
9.51999
 21
2.68399
  0
LINE
  8
0
 10
9.51999
 20
2.68399
 11
9.34393
 21
2.64767
  0
LINE
  8
0
 10
9.34393
 20
2.64767
 11
9.16574
 21
2.62175
  0
LINE
  8
0
 10
9.16574
 20
2.62175
 11
8.98543
 21
2.60619
  0
LINE
  8
0
 10
8.98543
 20
2.60619
 11
8.80299
 21
2.601
  0
LINE
  8
0
 10
8.80299
 20
2.601
 11
8.41336
 21
2.63744
  0
LINE
  8
0
 10
8.41336
 20
2.63744
 11
8.04449
 21
2.74675
  0
LINE
  8
0
 10
8.04449
 20
2.74675
 11
7.69637
 21
2.92892
  0
LINE
  8
0
 10
7.69637
 20
2.92892
 11
7.36899
 21
3.18399
  0
LINE
  8
0
 10
7.36899
 20
3.18399
 11
7.09161
 21
3.54161
  0
LINE
  8
0
 10
7.09161
 20
3.54161
 11
6.89349
 21
4.03049
  0
LINE
  8
0
 10
6.89349
 20
4.03049
 11
6.77461
 21
4.65062
  0
LINE
  8
0
 10
6.77461
 20
4.65062
 11
6.73499
 21
5.40199
  0
LINE
  8
0
 10
6.73499
 20
5.40199
 11
6.73499
 21
13.538
  0
LINE
  8
0
 10
6.73499
 20
13.538
 11
10.737
 21
13.538
  0
LINE
  8
0
 10
10.737
 20
13.538
 11
10.737
 21
16.339
  0
LINE
  8
0
 10
10.737
 20
16.339
 11
6.73499
 21
16.339
  0
LINE
  8
0
 10
6.73499
 20
16.339
 11
6.73499
 21
21.34
  0
LINE
  8
0
 10
6.73499
 20
21.34
 11
3.668
 21
21.34
  0
LINE
  8
0
 10
3.668
 20
21.34
 11
3.668
 21
16.339
  0
LINE
  8
0
 10
3.668
 20
16.339
 11
0.799988
 21
16.339
  0
LINE
  8
0
 10
0.799988
 20
16.339
 11
0.799988
 21
13.538
  0
LINE
  8
0
 10
0.799988
 20
13.538
 11
3.668
 21
13.538
  0
LINE
  8
0
 10
3.668
 20
13.538
 11
3.668
 21
4.40099
  0
LINE
  8
0
 10
3.668
 20
4.40099
 11
3.76474
 21
3.36137
  0
LINE
  8
0
 10
3.76474
 20
3.36137
 11
4.02199
 21
2.44249
  0
LINE
  8
0
 10
4.02199
 20
2.44249
 11
4.43974
 21
1.64436
  0
LINE
  8
0
 10
4.43974
 20
1.64436
 11
5.01799
 21
0.966995
  0
LINE
  8
0
 10
5.01799
 20
0.966995
 11
5.71924
 21
0.427124
  0
LINE
  8
0
 10
5.71924
 20
0.427124
 11
6.506
 21
0.0414886
  0
LINE
  8
0
 10
6.506
 20
0.0414886
 11
7.37823
 21
-0.189865
  0
LINE
  8
0
 10
7.37823
 20
-0.189865
 11
8.336
 21
-0.266998
  0
LINE
  8
0
 10
8.336
 20
-0.266998
 11
9.11143
 21
-0.239868
  0
ENDSEC
  0
SECTION
  2
OBJECTS
  0
DICTIONARY
  0
ENDSEC
  0
EOF
