  0
SECTION
  2
BLOCKS
  0
ENDSEC
  0
SECTION
  2
ENTITIES
  0
LINE
  8
0
 10
19.373
 20
1.2
 11
17.139
 21
4.13499
  0
LINE
  8
0
 10
17.139
 20
4.13499
 11
19.906
 21
8.536
  0
LINE
  8
0
 10
19.906
 20
8.536
 11
17.506
 21
10.003
  0
LINE
  8
0
 10
17.506
 20
10.003
 11
15.372
 21
6.435
  0
LINE
  8
0
 10
15.372
 20
6.435
 11
7.46899
 21
16.772
  0
LINE
  8
0
 10
7.46899
 20
16.772
 11
7.13342
 21
17.2804
  0
LINE
  8
0
 10
7.13342
 20
17.2804
 11
6.89374
 21
17.8055
  0
LINE
  8
0
 10
6.89374
 20
17.8055
 11
6.74992
 21
18.3474
  0
LINE
  8
0
 10
6.74992
 20
18.3474
 11
6.702
 21
18.906
  0
LINE
  8
0
 10
6.702
 20
18.906
 11
6.74887
 21
19.4603
  0
LINE
  8
0
 10
6.74887
 20
19.4603
 11
6.8895
 21
19.9562
  0
LINE
  8
0
 10
6.8895
 20
19.9562
 11
7.12387
 21
20.3938
  0
LINE
  8
0
 10
7.12387
 20
20.3938
 11
7.452
 21
20.773
  0
LINE
  8
0
 10
7.452
 20
20.773
 11
7.85349
 21
21.0797
  0
LINE
  8
0
 10
7.85349
 20
21.0797
 11
8.30699
 21
21.2987
  0
LINE
  8
0
 10
8.30699
 20
21.2987
 11
8.8125
 21
21.4302
  0
LINE
  8
0
 10
8.8125
 20
21.4302
 11
9.37
 21
21.474
  0
LINE
  8
0
 10
9.37
 20
21.474
 11
10.2014
 21
21.3177
  0
LINE
  8
0
 10
10.2014
 20
21.3177
 11
10.9287
 21
20.8487
  0
LINE
  8
0
 10
10.9287
 20
20.8487
 11
11.5519
 21
20.0672
  0
LINE
  8
0
 10
11.5519
 20
20.0672
 11
12.071
 21
18.973
  0
LINE
  8
0
 10
12.071
 20
18.973
 11
14.705
 21
20.373
  0
LINE
  8
0
 10
14.705
 20
20.373
 11
14.3401
 21
21.2576
  0
LINE
  8
0
 10
14.3401
 20
21.2576
 11
13.8792
 21
22.0442
  0
LINE
  8
0
 10
13.8792
 20
22.0442
 11
13.3226
 21
22.733
  0
LINE
  8
0
 10
13.3226
 20
22.733
 11
12.67
 21
23.324
  0
LINE
  8
0
 10
12.67
 20
23.324
 11
11.9387
 21
23.7982
  0
LINE
  8
0
 10
11.9387
 20
23.7982
 11
11.145
 21
24.137
  0
LINE
  8
0
 10
11.145
 20
24.137
 11
10.2887
 21
24.3402
  0
LINE
  8
0
 10
10.2887
 20
24.3402
 11
9.37
 21
24.408
  0
LINE
  8
0
 10
9.37
 20
24.408
 11
8.22768
 21
24.3069
  0
LINE
  8
0
 10
8.22768
 20
24.3069
 11
7.16875
 21
24.0035
  0
LINE
  8
0
 10
7.16875
 20
24.0035
 11
6.19318
 21
23.4979
  0
LINE
  8
0
 10
6.19318
 20
23.4979
 11
5.30099
 21
22.79
  0
LINE
  8
0
 10
5.30099
 20
22.79
 11
4.55724
 21
21.9409
  0
LINE
  8
0
 10
4.55724
 20
21.9409
 11
4.02599
 21
21.0105
  0
LINE
  8
0
 10
4.02599
 20
21.0105
 11
3.70724
 21
19.9989
  0
LINE
  8
0
 10
3.70724
 20
19.9989
 11
3.601
 21
18.906
  0
LINE
  8
0
 10
3.601
 20
18.906
 11
3.70937
 21
18.0077
  0
LINE
  8
0
 10
3.70937
 20
18.0077
 11
4.03448
 21
17.047
  0
LINE
  8
0
 10
4.03448
 20
17.047
 11
4.57637
 21
16.0237
  0
LINE
  8
0
 10
4.57637
 20
16.0237
 11
5.33499
 21
14.938
  0
LINE
  8
0
 10
5.33499
 20
14.938
 11
4.43349
 21
14.3097
  0
LINE
  8
0
 10
4.43349
 20
14.3097
 11
3.62999
 21
13.5917
  0
LINE
  8
0
 10
3.62999
 20
13.5917
 11
2.9245
 21
12.7842
  0
LINE
  8
0
 10
2.9245
 20
12.7842
 11
2.31699
 21
11.887
  0
LINE
  8
0
 10
2.31699
 20
11.887
 11
1.82831
 21
10.9315
  0
LINE
  8
0
 10
1.82831
 20
10.9315
 11
1.47925
 21
9.94899
  0
LINE
  8
0
 10
1.47925
 20
9.94899
 11
1.26981
 21
8.9395
  0
LINE
  8
0
 10
1.26981
 20
8.9395
 11
1.2
 21
7.903
  0
LINE
  8
0
 10
1.2
 20
7.903
 11
1.35837
 21
6.1898
  0
LINE
  8
0
 10
1.35837
 20
6.1898
 11
1.8335
 21
4.61824
  0
LINE
  8
0
 10
1.8335
 20
4.61824
 11
2.62537
 21
3.18831
  0
LINE
  8
0
 10
2.62537
 20
3.18831
 11
3.73399
 21
1.89999
  0
LINE
  8
0
 10
3.73399
 20
1.89999
 11
5.07018
 21
0.835114
  0
LINE
  8
0
 10
5.07018
 20
0.835114
 11
6.54375
 21
0.0744934
  0
LINE
  8
0
 10
6.54375
 20
0.0744934
 11
8.15468
 21
-0.381866
  0
LINE
  8
0
 10
8.15468
 20
-0.381866
 11
9.903
 21
-0.533997
  0
LINE
  8
0
 10
9.903
 20
-0.533997
 11
11.4118
 21
-0.398499
  0
LINE
  8
0
 10
11.4118
 20
-0.398499
 11
12.8372
 21
0.00799561
  0
LINE
  8
0
 10
12.8372
 20
0.00799561
 11
14.1793
 21
0.685486
  0
LINE
  8
0
 10
14.1793
 20
0.685486
 11
15.438
 21
1.63399
  0
LINE
  8
0
 10
15.438
 20
1.63399
 11
17.072
 21
-0.533997
  0
LINE
  8
0
 10
17.072
 20
-0.533997
 11
19.373
 21
1.2
  0
LINE
  8
0
 10
8.7025
 20
2.36806
 11
7.60199
 21
2.67125
  0
LINE
  8
0
 10
7.60199
 20
2.67125
 11
6.60149
 21
3.17656
  0
LINE
  8
0
 10
6.60149
 20
3.17656
 11
5.70099
 21
3.88399
  0
LINE
  8
0
 10
5.70099
 20
3.88399
 11
4.95724
 21
4.74193
  0
LINE
  8
0
 10
4.95724
 20
4.74193
 11
4.42599
 21
5.69774
  0
LINE
  8
0
 10
4.42599
 20
5.69774
 11
4.10724
 21
6.75143
  0
LINE
  8
0
 10
4.10724
 20
6.75143
 11
4.00099
 21
7.903
  0
LINE
  8
0
 10
4.00099
 20
7.903
 11
4.05205
 21
8.61118
  0
LINE
  8
0
 10
4.05205
 20
8.61118
 11
4.20525
 21
9.30275
  0
LINE
  8
0
 10
4.20525
 20
9.30275
 11
4.46056
 21
9.97768
  0
LINE
  8
0
 10
4.46056
 20
9.97768
 11
4.81799
 21
10.636
  0
LINE
  8
0
 10
4.81799
 20
10.636
 11
5.26299
 21
11.2531
  0
LINE
  8
0
 10
5.26299
 20
11.2531
 11
5.78099
 21
11.8035
  0
LINE
  8
0
 10
5.78099
 20
11.8035
 11
6.37199
 21
12.2871
  0
LINE
  8
0
 10
6.37199
 20
12.2871
 11
7.036
 21
12.704
  0
LINE
  8
0
 10
7.036
 20
12.704
 11
13.738
 21
3.868
  0
LINE
  8
0
 10
13.738
 20
3.868
 11
12.9482
 21
3.16756
  0
LINE
  8
0
 10
12.9482
 20
3.16756
 11
12.0457
 21
2.66724
  0
LINE
  8
0
 10
12.0457
 20
2.66724
 11
11.0307
 21
2.36705
  0
LINE
  8
0
 10
11.0307
 20
2.36705
 11
9.903
 21
2.267
  0
LINE
  8
0
 10
9.903
 20
2.267
 11
8.7025
 21
2.36806
  0
ENDSEC
  0
SECTION
  2
OBJECTS
  0
DICTIONARY
  0
ENDSEC
  0
EOF
