  0
SECTION
  2
BLOCKS
  0
ENDSEC
  0
SECTION
  2
ENTITIES
  0
LINE
  8
0
 10
10.5644
 20
-0.455872
 11
11.7157
 21
-0.221497
  0
LINE
  8
0
 10
11.7157
 20
-0.221497
 11
12.7899
 21
0.169113
  0
LINE
  8
0
 10
12.7899
 20
0.169113
 11
13.787
 21
0.715988
  0
LINE
  8
0
 10
13.787
 20
0.715988
 11
14.6824
 21
1.40086
  0
LINE
  8
0
 10
14.6824
 20
1.40086
 11
15.4505
 21
2.2045
  0
LINE
  8
0
 10
15.4505
 20
2.2045
 11
16.0914
 21
3.12686
  0
LINE
  8
0
 10
16.0914
 20
3.12686
 11
16.605
 21
4.168
  0
LINE
  8
0
 10
16.605
 20
4.168
 11
13.871
 21
5.33499
  0
LINE
  8
0
 10
13.871
 20
5.33499
 11
13.0624
 21
3.99274
  0
LINE
  8
0
 10
13.0624
 20
3.99274
 11
12.0037
 21
3.034
  0
LINE
  8
0
 10
12.0037
 20
3.034
 11
10.6949
 21
2.45874
  0
LINE
  8
0
 10
10.6949
 20
2.45874
 11
9.13599
 21
2.267
  0
LINE
  8
0
 10
9.13599
 20
2.267
 11
8.12137
 21
2.37331
  0
LINE
  8
0
 10
8.12137
 20
2.37331
 11
7.17749
 21
2.69225
  0
LINE
  8
0
 10
7.17749
 20
2.69225
 11
6.30437
 21
3.2238
  0
LINE
  8
0
 10
6.30437
 20
3.2238
 11
5.502
 21
3.96799
  0
LINE
  8
0
 10
5.502
 20
3.96799
 11
4.84531
 21
4.86806
  0
LINE
  8
0
 10
4.84531
 20
4.86806
 11
4.37624
 21
5.86824
  0
LINE
  8
0
 10
4.37624
 20
5.86824
 11
4.0948
 21
6.96855
  0
LINE
  8
0
 10
4.0948
 20
6.96855
 11
4.00099
 21
8.16899
  0
LINE
  8
0
 10
4.00099
 20
8.16899
 11
4.0948
 21
9.36949
  0
LINE
  8
0
 10
4.0948
 20
9.36949
 11
4.37624
 21
10.47
  0
LINE
  8
0
 10
4.37624
 20
10.47
 11
4.84531
 21
11.4705
  0
LINE
  8
0
 10
4.84531
 20
11.4705
 11
5.502
 21
12.371
  0
LINE
  8
0
 10
5.502
 20
12.371
 11
6.30437
 21
13.1147
  0
LINE
  8
0
 10
6.30437
 20
13.1147
 11
7.17749
 21
13.646
  0
LINE
  8
0
 10
7.17749
 20
13.646
 11
8.12137
 21
13.9647
  0
LINE
  8
0
 10
8.12137
 20
13.9647
 11
9.13599
 21
14.071
  0
LINE
  8
0
 10
9.13599
 20
14.071
 11
10.647
 21
13.8793
  0
LINE
  8
0
 10
10.647
 20
13.8793
 11
11.912
 21
13.3042
  0
LINE
  8
0
 10
11.912
 20
13.3042
 11
12.931
 21
12.3458
  0
LINE
  8
0
 10
12.931
 20
12.3458
 11
13.704
 21
11.004
  0
LINE
  8
0
 10
13.704
 20
11.004
 11
16.505
 21
12.171
  0
LINE
  8
0
 10
16.505
 20
12.171
 11
15.9801
 21
13.2116
  0
LINE
  8
0
 10
15.9801
 20
13.2116
 11
15.3382
 21
14.1335
  0
LINE
  8
0
 10
15.3382
 20
14.1335
 11
14.5796
 21
14.9366
  0
LINE
  8
0
 10
14.5796
 20
14.9366
 11
13.704
 21
15.621
  0
LINE
  8
0
 10
13.704
 20
15.621
 11
12.7309
 21
16.1683
  0
LINE
  8
0
 10
12.7309
 20
16.1683
 11
11.6785
 21
16.5592
  0
LINE
  8
0
 10
11.6785
 20
16.5592
 11
10.5469
 21
16.7938
  0
LINE
  8
0
 10
10.5469
 20
16.7938
 11
9.336
 21
16.872
  0
LINE
  8
0
 10
9.336
 20
16.872
 11
7.59605
 21
16.7178
  0
LINE
  8
0
 10
7.59605
 20
16.7178
 11
6.01024
 21
16.2552
  0
LINE
  8
0
 10
6.01024
 20
16.2552
 11
4.57855
 21
15.4843
  0
LINE
  8
0
 10
4.57855
 20
15.4843
 11
3.30099
 21
14.405
  0
LINE
  8
0
 10
3.30099
 20
14.405
 11
2.26543
 21
13.0897
  0
LINE
  8
0
 10
2.26543
 20
13.0897
 11
1.52574
 21
11.612
  0
LINE
  8
0
 10
1.52574
 20
11.612
 11
1.08192
 21
9.97174
  0
LINE
  8
0
 10
1.08192
 20
9.97174
 11
0.93399
 21
8.16899
  0
LINE
  8
0
 10
0.93399
 20
8.16899
 11
1.08192
 21
6.39143
  0
LINE
  8
0
 10
1.08192
 20
6.39143
 11
1.52574
 21
4.75974
  0
LINE
  8
0
 10
1.52574
 20
4.75974
 11
2.26543
 21
3.27393
  0
LINE
  8
0
 10
2.26543
 20
3.27393
 11
3.30099
 21
1.93399
  0
LINE
  8
0
 10
3.30099
 20
1.93399
 11
4.57855
 21
0.854248
  0
LINE
  8
0
 10
4.57855
 20
0.854248
 11
6.01024
 21
0.0829926
  0
LINE
  8
0
 10
6.01024
 20
0.0829926
 11
7.59605
 21
-0.379745
  0
LINE
  8
0
 10
7.59605
 20
-0.379745
 11
9.336
 21
-0.533997
  0
LINE
  8
0
 10
9.336
 20
-0.533997
 11
10.5644
 21
-0.455872
  0
ENDSEC
  0
SECTION
  2
OBJECTS
  0
DICTIONARY
  0
ENDSEC
  0
EOF
