  0
SECTION
  2
BLOCKS
  0
ENDSEC
  0
SECTION
  2
ENTITIES
  0
LINE
  8
0
 10
10.4042
 20
-0.46106
 11
11.541
 21
-0.242249
  0
LINE
  8
0
 10
11.541
 20
-0.242249
 11
12.6132
 21
0.122437
  0
LINE
  8
0
 10
12.6132
 20
0.122437
 11
13.621
 21
0.632996
  0
LINE
  8
0
 10
13.621
 20
0.632996
 11
14.5433
 21
1.27318
  0
LINE
  8
0
 10
14.5433
 20
1.27318
 11
15.3592
 21
2.02574
  0
LINE
  8
0
 10
15.3592
 20
2.02574
 11
16.0688
 21
2.89069
  0
LINE
  8
0
 10
16.0688
 20
2.89069
 11
16.672
 21
3.868
  0
LINE
  8
0
 10
16.672
 20
3.868
 11
13.938
 21
5.202
  0
LINE
  8
0
 10
13.938
 20
5.202
 11
13.0252
 21
3.91792
  0
LINE
  8
0
 10
13.0252
 20
3.91792
 11
11.954
 21
3.00075
  0
LINE
  8
0
 10
11.954
 20
3.00075
 11
10.7242
 21
2.45042
  0
LINE
  8
0
 10
10.7242
 20
2.45042
 11
9.336
 21
2.267
  0
LINE
  8
0
 10
9.336
 20
2.267
 11
8.30649
 21
2.35867
  0
LINE
  8
0
 10
8.30649
 20
2.35867
 11
7.35199
 21
2.63374
  0
LINE
  8
0
 10
7.35199
 20
2.63374
 11
6.47249
 21
3.09218
  0
LINE
  8
0
 10
6.47249
 20
3.09218
 11
5.668
 21
3.73399
  0
LINE
  8
0
 10
5.668
 20
3.73399
 11
4.99312
 21
4.52625
  0
LINE
  8
0
 10
4.99312
 20
4.52625
 11
4.5015
 21
5.435
  0
LINE
  8
0
 10
4.5015
 20
5.435
 11
4.19312
 21
6.46024
  0
LINE
  8
0
 10
4.19312
 20
6.46024
 11
4.06799
 21
7.60199
  0
LINE
  8
0
 10
4.06799
 20
7.60199
 11
16.905
 21
7.60199
  0
LINE
  8
0
 10
16.905
 20
7.60199
 11
16.939
 21
7.93599
  0
LINE
  8
0
 10
16.939
 20
7.93599
 11
16.8046
 21
9.93568
  0
LINE
  8
0
 10
16.8046
 20
9.93568
 11
16.4012
 21
11.6997
  0
LINE
  8
0
 10
16.4012
 20
11.6997
 11
15.729
 21
13.2282
  0
LINE
  8
0
 10
15.729
 20
13.2282
 11
14.788
 21
14.521
  0
LINE
  8
0
 10
14.788
 20
14.521
 11
13.6198
 21
15.5496
  0
LINE
  8
0
 10
13.6198
 20
15.5496
 11
12.2662
 21
16.2842
  0
LINE
  8
0
 10
12.2662
 20
16.2842
 11
10.7273
 21
16.7251
  0
LINE
  8
0
 10
10.7273
 20
16.7251
 11
9.00299
 21
16.872
  0
LINE
  8
0
 10
9.00299
 20
16.872
 11
7.31474
 21
16.7167
  0
LINE
  8
0
 10
7.31474
 20
16.7167
 11
5.78499
 21
16.251
  0
LINE
  8
0
 10
5.78499
 20
16.251
 11
4.41374
 21
15.4747
  0
LINE
  8
0
 10
4.41374
 20
15.4747
 11
3.20099
 21
14.388
  0
LINE
  8
0
 10
3.20099
 20
14.388
 11
2.20918
 21
13.0678
  0
LINE
  8
0
 10
2.20918
 20
13.0678
 11
1.50075
 21
11.5912
  0
LINE
  8
0
 10
1.50075
 20
11.5912
 11
1.07568
 21
9.9583
  0
LINE
  8
0
 10
1.07568
 20
9.9583
 11
0.93399
 21
8.16899
  0
LINE
  8
0
 10
0.93399
 20
8.16899
 11
1.07986
 21
6.36624
  0
LINE
  8
0
 10
1.07986
 20
6.36624
 11
1.51749
 21
4.726
  0
LINE
  8
0
 10
1.51749
 20
4.726
 11
2.24687
 21
3.24825
  0
LINE
  8
0
 10
2.24687
 20
3.24825
 11
3.26799
 21
1.933
  0
LINE
  8
0
 10
3.26799
 20
1.933
 11
4.51418
 21
0.853683
  0
LINE
  8
0
 10
4.51418
 20
0.853683
 11
5.91875
 21
0.0827484
  0
LINE
  8
0
 10
5.91875
 20
0.0827484
 11
7.48167
 21
-0.379807
  0
LINE
  8
0
 10
7.48167
 20
-0.379807
 11
9.20299
 21
-0.533997
  0
LINE
  8
0
 10
9.20299
 20
-0.533997
 11
10.4042
 21
-0.46106
  0
LINE
  8
0
 10
4.30099
 20
10.137
 11
4.55455
 21
10.9912
  0
LINE
  8
0
 10
4.55455
 20
10.9912
 11
4.91425
 21
11.7537
  0
LINE
  8
0
 10
4.91425
 20
11.7537
 11
5.38005
 21
12.4247
  0
LINE
  8
0
 10
5.38005
 20
12.4247
 11
5.952
 21
13.004
  0
LINE
  8
0
 10
5.952
 20
13.004
 11
6.60724
 21
13.4708
  0
LINE
  8
0
 10
6.60724
 20
13.4708
 11
7.323
 21
13.8042
  0
LINE
  8
0
 10
7.323
 20
13.8042
 11
8.09924
 21
14.0043
  0
LINE
  8
0
 10
8.09924
 20
14.0043
 11
8.93599
 21
14.071
  0
LINE
  8
0
 10
8.93599
 20
14.071
 11
9.9333
 21
14.0012
  0
LINE
  8
0
 10
9.9333
 20
14.0012
 11
10.8242
 21
13.7917
  0
LINE
  8
0
 10
10.8242
 20
13.7917
 11
11.6088
 21
13.4427
  0
LINE
  8
0
 10
11.6088
 20
13.4427
 11
12.287
 21
12.954
  0
LINE
  8
0
 10
12.287
 20
12.954
 11
12.8426
 21
12.3591
  0
LINE
  8
0
 10
12.8426
 20
12.3591
 11
13.2585
 21
11.6912
  0
LINE
  8
0
 10
13.2585
 20
11.6912
 11
13.5346
 21
10.9506
  0
LINE
  8
0
 10
13.5346
 20
10.9506
 11
13.671
 21
10.137
  0
LINE
  8
0
 10
13.671
 20
10.137
 11
4.30099
 21
10.137
  0
ENDSEC
  0
SECTION
  2
OBJECTS
  0
DICTIONARY
  0
ENDSEC
  0
EOF
