  0
SECTION
  2
BLOCKS
  0
ENDSEC
  0
SECTION
  2
ENTITIES
  0
LINE
  8
0
 10
10.8784
 20
-7.59424
 11
12.4705
 21
-7.16899
  0
LINE
  8
0
 10
12.4705
 20
-7.16899
 11
13.8794
 21
-6.46024
  0
LINE
  8
0
 10
13.8794
 20
-6.46024
 11
15.105
 21
-5.46799
  0
LINE
  8
0
 10
15.105
 20
-5.46799
 11
16.0824
 21
-4.24474
  0
LINE
  8
0
 10
16.0824
 20
-4.24474
 11
16.7805
 21
-2.80899
  0
LINE
  8
0
 10
16.7805
 20
-2.80899
 11
17.1994
 21
-1.16074
  0
LINE
  8
0
 10
17.1994
 20
-1.16074
 11
17.339
 21
0.699997
  0
LINE
  8
0
 10
17.339
 20
0.699997
 11
17.339
 21
16.339
  0
LINE
  8
0
 10
17.339
 20
16.339
 11
14.405
 21
16.339
  0
LINE
  8
0
 10
14.405
 20
16.339
 11
14.405
 21
14.071
  0
LINE
  8
0
 10
14.405
 20
14.071
 11
14.271
 21
14.071
  0
LINE
  8
0
 10
14.271
 20
14.071
 11
13.7989
 21
14.6871
  0
LINE
  8
0
 10
13.7989
 20
14.6871
 11
13.2497
 21
15.2342
  0
LINE
  8
0
 10
13.2497
 20
15.2342
 11
12.6234
 21
15.7126
  0
LINE
  8
0
 10
12.6234
 20
15.7126
 11
11.92
 21
16.122
  0
LINE
  8
0
 10
11.92
 20
16.122
 11
11.1628
 21
16.4501
  0
LINE
  8
0
 10
11.1628
 20
16.4501
 11
10.3742
 21
16.6845
  0
LINE
  8
0
 10
10.3742
 20
16.6845
 11
9.55431
 21
16.8251
  0
LINE
  8
0
 10
9.55431
 20
16.8251
 11
8.70299
 21
16.872
  0
LINE
  8
0
 10
8.70299
 20
16.872
 11
7.15874
 21
16.7136
  0
LINE
  8
0
 10
7.15874
 20
16.7136
 11
5.72699
 21
16.2385
  0
LINE
  8
0
 10
5.72699
 20
16.2385
 11
4.40775
 21
15.4466
  0
LINE
  8
0
 10
4.40775
 20
15.4466
 11
3.20099
 21
14.338
  0
LINE
  8
0
 10
3.20099
 20
14.338
 11
2.20918
 21
13.0022
  0
LINE
  8
0
 10
2.20918
 20
13.0022
 11
1.50075
 21
11.5287
  0
LINE
  8
0
 10
1.50075
 20
11.5287
 11
1.07568
 21
9.91768
  0
LINE
  8
0
 10
1.07568
 20
9.91768
 11
0.93399
 21
8.16899
  0
LINE
  8
0
 10
0.93399
 20
8.16899
 11
1.07568
 21
6.41862
  0
LINE
  8
0
 10
1.07568
 20
6.41862
 11
1.50075
 21
4.8015
  0
LINE
  8
0
 10
1.50075
 20
4.8015
 11
2.20918
 21
3.31761
  0
LINE
  8
0
 10
2.20918
 20
3.31761
 11
3.20099
 21
1.967
  0
LINE
  8
0
 10
3.20099
 20
1.967
 11
4.40775
 21
0.872803
  0
LINE
  8
0
 10
4.40775
 20
0.872803
 11
5.72699
 21
0.0912476
  0
LINE
  8
0
 10
5.72699
 20
0.0912476
 11
7.15874
 21
-0.377686
  0
LINE
  8
0
 10
7.15874
 20
-0.377686
 11
8.70299
 21
-0.533997
  0
LINE
  8
0
 10
8.70299
 20
-0.533997
 11
9.55431
 21
-0.487122
  0
LINE
  8
0
 10
9.55431
 20
-0.487122
 11
10.3742
 21
-0.346497
  0
LINE
  8
0
 10
10.3742
 20
-0.346497
 11
11.1628
 21
-0.112122
  0
LINE
  8
0
 10
11.1628
 20
-0.112122
 11
11.92
 21
0.215988
  0
LINE
  8
0
 10
11.92
 20
0.215988
 11
12.6234
 21
0.625809
  0
LINE
  8
0
 10
12.6234
 20
0.625809
 11
13.2497
 21
1.10425
  0
LINE
  8
0
 10
13.2497
 20
1.10425
 11
13.7989
 21
1.65131
  0
LINE
  8
0
 10
13.7989
 20
1.65131
 11
14.271
 21
2.267
  0
LINE
  8
0
 10
14.271
 20
2.267
 11
14.405
 21
2.267
  0
LINE
  8
0
 10
14.405
 20
2.267
 11
14.405
 21
0.699997
  0
LINE
  8
0
 10
14.405
 20
0.699997
 11
14.3174
 21
-0.546112
  0
LINE
  8
0
 10
14.3174
 20
-0.546112
 11
14.0547
 21
-1.6505
  0
LINE
  8
0
 10
14.0547
 20
-1.6505
 11
13.6169
 21
-2.61311
  0
LINE
  8
0
 10
13.6169
 20
-2.61311
 11
13.004
 21
-3.43399
  0
LINE
  8
0
 10
13.004
 20
-3.43399
 11
12.2352
 21
-4.09068
  0
LINE
  8
0
 10
12.2352
 20
-4.09068
 11
11.3287
 21
-4.55974
  0
LINE
  8
0
 10
11.3287
 20
-4.55974
 11
10.2847
 21
-4.84119
  0
LINE
  8
0
 10
10.2847
 20
-4.84119
 11
9.103
 21
-4.935
  0
LINE
  8
0
 10
9.103
 20
-4.935
 11
8.31099
 21
-4.8808
  0
LINE
  8
0
 10
8.31099
 20
-4.8808
 11
7.56898
 21
-4.71825
  0
LINE
  8
0
 10
7.56898
 20
-4.71825
 11
6.877
 21
-4.44731
  0
LINE
  8
0
 10
6.877
 20
-4.44731
 11
6.23499
 21
-4.06799
  0
LINE
  8
0
 10
6.23499
 20
-4.06799
 11
5.66425
 21
-3.59906
  0
LINE
  8
0
 10
5.66425
 20
-3.59906
 11
5.185
 21
-3.05925
  0
LINE
  8
0
 10
5.185
 20
-3.05925
 11
4.79724
 21
-2.44855
  0
LINE
  8
0
 10
4.79724
 20
-2.44855
 11
4.50099
 21
-1.767
  0
LINE
  8
0
 10
4.50099
 20
-1.767
 11
1.601
 21
-2.96799
  0
LINE
  8
0
 10
1.601
 20
-2.96799
 11
1.80487
 21
-3.489
  0
LINE
  8
0
 10
1.80487
 20
-3.489
 11
2.05049
 21
-3.98499
  0
LINE
  8
0
 10
2.05049
 20
-3.98499
 11
2.33786
 21
-4.45599
  0
LINE
  8
0
 10
2.33786
 20
-4.45599
 11
2.66699
 21
-4.90199
  0
LINE
  8
0
 10
2.66699
 20
-4.90199
 11
3.03511
 21
-5.32086
  0
LINE
  8
0
 10
3.03511
 20
-5.32086
 11
3.43849
 21
-5.71049
  0
LINE
  8
0
 10
3.43849
 20
-5.71049
 11
3.87712
 21
-6.07086
  0
LINE
  8
0
 10
3.87712
 20
-6.07086
 11
4.351
 21
-6.40199
  0
LINE
  8
0
 10
4.351
 20
-6.40199
 11
4.85649
 21
-6.70125
  0
LINE
  8
0
 10
4.85649
 20
-6.70125
 11
5.38899
 21
-6.965
  0
LINE
  8
0
 10
5.38899
 20
-6.965
 11
5.94849
 21
-7.19324
  0
LINE
  8
0
 10
5.94849
 20
-7.19324
 11
6.53499
 21
-7.38599
  0
LINE
  8
0
 10
6.53499
 20
-7.38599
 11
7.14587
 21
-7.53912
  0
LINE
  8
0
 10
7.14587
 20
-7.53912
 11
7.7775
 21
-7.6485
  0
LINE
  8
0
 10
7.7775
 20
-7.6485
 11
8.42987
 21
-7.71411
  0
LINE
  8
0
 10
8.42987
 20
-7.71411
 11
9.103
 21
-7.73599
  0
LINE
  8
0
 10
9.103
 20
-7.73599
 11
10.8784
 21
-7.59424
  0
LINE
  8
0
 10
8.1463
 20
2.37125
 11
7.17725
 21
2.68399
  0
LINE
  8
0
 10
7.17725
 20
2.68399
 11
6.29581
 21
3.20525
  0
LINE
  8
0
 10
6.29581
 20
3.20525
 11
5.502
 21
3.935
  0
LINE
  8
0
 10
5.502
 20
3.935
 11
4.84531
 21
4.812
  0
LINE
  8
0
 10
4.84531
 20
4.812
 11
4.37624
 21
5.81
  0
LINE
  8
0
 10
4.37624
 20
5.81
 11
4.0948
 21
6.92899
  0
LINE
  8
0
 10
4.0948
 20
6.92899
 11
4.00099
 21
8.16899
  0
LINE
  8
0
 10
4.00099
 20
8.16899
 11
4.0948
 21
9.39668
  0
LINE
  8
0
 10
4.0948
 20
9.39668
 11
4.37624
 21
10.5117
  0
LINE
  8
0
 10
4.37624
 20
10.5117
 11
4.84531
 21
11.5142
  0
LINE
  8
0
 10
4.84531
 20
11.5142
 11
5.502
 21
12.404
  0
LINE
  8
0
 10
5.502
 20
12.404
 11
6.29581
 21
13.1333
  0
LINE
  8
0
 10
6.29581
 20
13.1333
 11
7.17725
 21
13.6542
  0
LINE
  8
0
 10
7.17725
 20
13.6542
 11
8.1463
 21
13.9668
  0
LINE
  8
0
 10
8.1463
 20
13.9668
 11
9.20299
 21
14.071
  0
LINE
  8
0
 10
9.20299
 20
14.071
 11
10.272
 21
13.9668
  0
LINE
  8
0
 10
10.272
 20
13.9668
 11
11.2452
 21
13.6542
  0
LINE
  8
0
 10
11.2452
 20
13.6542
 11
12.1226
 21
13.1333
  0
LINE
  8
0
 10
12.1226
 20
13.1333
 11
12.904
 21
12.404
  0
LINE
  8
0
 10
12.904
 20
12.404
 11
13.5607
 21
11.5142
  0
LINE
  8
0
 10
13.5607
 20
11.5142
 11
14.0297
 21
10.5117
  0
LINE
  8
0
 10
14.0297
 20
10.5117
 11
14.3112
 21
9.39668
  0
LINE
  8
0
 10
14.3112
 20
9.39668
 11
14.405
 21
8.16899
  0
LINE
  8
0
 10
14.405
 20
8.16899
 11
14.3112
 21
6.91449
  0
LINE
  8
0
 10
14.3112
 20
6.91449
 11
14.0297
 21
5.78499
  0
LINE
  8
0
 10
14.0297
 20
5.78499
 11
13.5607
 21
4.78049
  0
LINE
  8
0
 10
13.5607
 20
4.78049
 11
12.904
 21
3.90099
  0
LINE
  8
0
 10
12.904
 20
3.90099
 11
12.1349
 21
3.18611
  0
LINE
  8
0
 10
12.1349
 20
3.18611
 11
11.2617
 21
2.67549
  0
LINE
  8
0
 10
11.2617
 20
2.67549
 11
10.2844
 21
2.36911
  0
LINE
  8
0
 10
10.2844
 20
2.36911
 11
9.20299
 21
2.267
  0
LINE
  8
0
 10
9.20299
 20
2.267
 11
8.1463
 21
2.37125
  0
ENDSEC
  0
SECTION
  2
OBJECTS
  0
DICTIONARY
  0
ENDSEC
  0
EOF
