  0
SECTION
  2
BLOCKS
  0
ENDSEC
  0
SECTION
  2
ENTITIES
  0
LINE
  8
0
 10
4.1013
 20
19.8456
 11
4.50124
 21
19.9642
  0
LINE
  8
0
 10
4.50124
 20
19.9642
 11
4.8678
 21
20.162
  0
LINE
  8
0
 10
4.8678
 20
20.162
 11
5.20099
 21
20.439
  0
LINE
  8
0
 10
5.20099
 20
20.439
 11
5.47836
 21
20.7727
  0
LINE
  8
0
 10
5.47836
 20
20.7727
 11
5.6765
 21
21.1397
  0
LINE
  8
0
 10
5.6765
 20
21.1397
 11
5.79536
 21
21.5402
  0
LINE
  8
0
 10
5.79536
 20
21.5402
 11
5.83499
 21
21.974
  0
LINE
  8
0
 10
5.83499
 20
21.974
 11
5.79536
 21
22.4073
  0
LINE
  8
0
 10
5.79536
 20
22.4073
 11
5.6765
 21
22.8072
  0
LINE
  8
0
 10
5.6765
 20
22.8072
 11
5.47836
 21
23.1738
  0
LINE
  8
0
 10
5.47836
 20
23.1738
 11
5.20099
 21
23.507
  0
LINE
  8
0
 10
5.20099
 20
23.507
 11
4.8678
 21
23.7844
  0
LINE
  8
0
 10
4.8678
 20
23.7844
 11
4.50124
 21
23.9825
  0
LINE
  8
0
 10
4.50124
 20
23.9825
 11
4.1013
 21
24.1014
  0
LINE
  8
0
 10
4.1013
 20
24.1014
 11
3.668
 21
24.141
  0
LINE
  8
0
 10
3.668
 20
24.141
 11
3.23462
 21
24.1014
  0
LINE
  8
0
 10
3.23462
 20
24.1014
 11
2.83449
 21
23.9825
  0
LINE
  8
0
 10
2.83449
 20
23.9825
 11
2.46762
 21
23.7844
  0
LINE
  8
0
 10
2.46762
 20
23.7844
 11
2.13399
 21
23.507
  0
LINE
  8
0
 10
2.13399
 20
23.507
 11
1.85661
 21
23.1738
  0
LINE
  8
0
 10
1.85661
 20
23.1738
 11
1.65849
 21
22.8072
  0
LINE
  8
0
 10
1.65849
 20
22.8072
 11
1.53961
 21
22.4073
  0
LINE
  8
0
 10
1.53961
 20
22.4073
 11
1.5
 21
21.974
  0
LINE
  8
0
 10
1.5
 20
21.974
 11
1.53961
 21
21.5402
  0
LINE
  8
0
 10
1.53961
 20
21.5402
 11
1.65849
 21
21.1397
  0
LINE
  8
0
 10
1.65849
 20
21.1397
 11
1.85661
 21
20.7727
  0
LINE
  8
0
 10
1.85661
 20
20.7727
 11
2.13399
 21
20.439
  0
LINE
  8
0
 10
2.13399
 20
20.439
 11
2.46762
 21
20.162
  0
LINE
  8
0
 10
2.46762
 20
20.162
 11
2.83449
 21
19.9642
  0
LINE
  8
0
 10
2.83449
 20
19.9642
 11
3.23462
 21
19.8456
  0
LINE
  8
0
 10
3.23462
 20
19.8456
 11
3.668
 21
19.806
  0
LINE
  8
0
 10
3.668
 20
19.806
 11
4.1013
 21
19.8456
  0
LINE
  8
0
 10
5.202
 20
16.339
 11
2.13399
 21
16.339
  0
LINE
  8
0
 10
2.13399
 20
16.339
 11
2.13399
 21
0
  0
LINE
  8
0
 10
2.13399
 20
0
 11
5.202
 21
0
  0
LINE
  8
0
 10
5.202
 20
0
 11
5.202
 21
16.339
  0
ENDSEC
  0
SECTION
  2
OBJECTS
  0
DICTIONARY
  0
ENDSEC
  0
EOF
