  0
SECTION
  2
BLOCKS
  0
ENDSEC
  0
SECTION
  2
ENTITIES
  0
LINE
  8
0
 10
4.935
 20
9.00299
 11
5.01518
 21
9.9073
  0
LINE
  8
0
 10
5.01518
 20
9.9073
 11
5.25574
 21
10.7532
  0
LINE
  8
0
 10
5.25574
 20
10.7532
 11
5.65668
 21
11.5408
  0
LINE
  8
0
 10
5.65668
 20
11.5408
 11
6.21799
 21
12.27
  0
LINE
  8
0
 10
6.21799
 20
12.27
 11
6.88812
 21
12.8829
  0
LINE
  8
0
 10
6.88812
 20
12.8829
 11
7.61449
 21
13.3207
  0
LINE
  8
0
 10
7.61449
 20
13.3207
 11
8.39711
 21
13.5834
  0
LINE
  8
0
 10
8.39711
 20
13.5834
 11
9.23599
 21
13.671
  0
LINE
  8
0
 10
9.23599
 20
13.671
 11
9.81131
 21
13.6564
  0
LINE
  8
0
 10
9.81131
 20
13.6564
 11
10.3032
 21
13.6127
  0
LINE
  8
0
 10
10.3032
 20
13.6127
 11
10.7118
 21
13.5399
  0
LINE
  8
0
 10
10.7118
 20
13.5399
 11
11.037
 21
13.438
  0
LINE
  8
0
 10
11.037
 20
13.438
 11
11.97
 21
16.405
  0
LINE
  8
0
 10
11.97
 20
16.405
 11
11.4784
 21
16.58
  0
LINE
  8
0
 10
11.4784
 20
16.58
 11
10.9367
 21
16.705
  0
LINE
  8
0
 10
10.9367
 20
16.705
 11
10.3449
 21
16.78
  0
LINE
  8
0
 10
10.3449
 20
16.78
 11
9.70299
 21
16.805
  0
LINE
  8
0
 10
9.70299
 20
16.805
 11
8.9998
 21
16.7477
  0
LINE
  8
0
 10
8.9998
 20
16.7477
 11
8.29024
 21
16.5757
  0
LINE
  8
0
 10
8.29024
 20
16.5757
 11
7.57431
 21
16.2892
  0
LINE
  8
0
 10
7.57431
 20
16.2892
 11
6.85199
 21
15.888
  0
LINE
  8
0
 10
6.85199
 20
15.888
 11
6.18843
 21
15.4055
  0
LINE
  8
0
 10
6.18843
 20
15.4055
 11
5.64774
 21
14.8752
  0
LINE
  8
0
 10
5.64774
 20
14.8752
 11
5.22993
 21
14.2971
  0
LINE
  8
0
 10
5.22993
 20
14.2971
 11
4.935
 21
13.671
  0
LINE
  8
0
 10
4.935
 20
13.671
 11
4.80199
 21
13.671
  0
LINE
  8
0
 10
4.80199
 20
13.671
 11
4.80199
 21
16.339
  0
LINE
  8
0
 10
4.80199
 20
16.339
 11
1.86699
 21
16.339
  0
LINE
  8
0
 10
1.86699
 20
16.339
 11
1.86699
 21
0
  0
LINE
  8
0
 10
1.86699
 20
0
 11
4.935
 21
0
  0
LINE
  8
0
 10
4.935
 20
0
 11
4.935
 21
9.00299
  0
ENDSEC
  0
SECTION
  2
OBJECTS
  0
DICTIONARY
  0
ENDSEC
  0
EOF
