  0
SECTION
  2
HEADER
  9
$ACADVER
  1
AC1014
  9
$HANDSEED
  5
FFFF
  9
$MEASUREMENT
 70
     1
  0
ENDSEC
  0
SECTION
  2
TABLES
  0
TABLE
  2
VPORT
  5
8
330
0
100
AcDbSymbolTable
 70
     4
  0
VPORT
  5
2E
330
8
100
AcDbSymbolTableRecord
100
AcDbViewportTableRecord
  2
*ACTIVE
 70
     0
 10
0.0
 20
0.0
 11
1.0
 21
1.0
 12
210.0
 22
148.5
 13
0.0
 23
0.0
 14
10.0
 24
10.0
 15
10.0
 25
10.0
 16
0.0
 26
0.0
 36
1.0
 17
0.0
 27
0.0
 37
0.0
 40
341.0
 41
1.24
 42
50.0
 43
0.0
 44
0.0
 50
0.0
 51
0.0
 71
     0
 72
   100
 73
     1
 74
     3
 75
     0
 76
     0
 77
     0
 78
     0
  0
ENDTAB
  0
TABLE
  2
LTYPE
  5
5
330
0
100
AcDbSymbolTable
 70
     1
  0
LTYPE
  5
14
330
5
100
AcDbSymbolTableRecord
100
AcDbLinetypeTableRecord
  2
BYBLOCK
 70
     0
  3

 72
    65
 73
     0
 40
0.0
  0
LTYPE
  5
15
330
5
100
AcDbSymbolTableRecord
100
AcDbLinetypeTableRecord
  2
BYLAYER
 70
     0
  3

 72
    65
 73
     0
 40
0.0
  0
LTYPE
  5
16
330
5
100
AcDbSymbolTableRecord
100
AcDbLinetypeTableRecord
  2
CONTINUOUS
 70
     0
  3
Solid line
 72
    65
 73
     0
 40
0.0
  0
ENDTAB
  0
TABLE
  2
LAYER
  5
2
100
AcDbSymbolTable
 70
2
  0
LAYER
  5
50
100
AcDbSymbolTableRecord
100
AcDbLayerTableRecord
  2
0
 70
0
  6
CONTINUOUS
  0
LAYER
  5
51
100
AcDbSymbolTableRecord
100
AcDbLayerTableRecord
  2
Layer_1
 70
0
  6
CONTINUOUS
  0
ENDTAB
  0
TABLE
  2
STYLE
  5
3
330
0
100
AcDbSymbolTable
 70
     1
  0
STYLE
  5
11
330
3
100
AcDbSymbolTableRecord
100
AcDbTextStyleTableRecord
  2
STANDARD
 70
     0
 40
0.0
 41
1.0
 50
0.0
 71
     0
 42
2.5
  3
txt
  4

  0
ENDTAB
  0
TABLE
  2
VIEW
  5
6
330
0
100
AcDbSymbolTable
 70
     0
  0
ENDTAB
  0
TABLE
  2
UCS
  5
7
330
0
100
AcDbSymbolTable
 70
     0
  0
ENDTAB
  0
TABLE
  2
APPID
  5
9
330
0
100
AcDbSymbolTable
 70
     2
  0
APPID
  5
12
330
9
100
AcDbSymbolTableRecord
100
AcDbRegAppTableRecord
  2
ACAD
 70
     0
  0
ENDTAB
  0
TABLE
  2
DIMSTYLE
  5
A
330
0
100
AcDbSymbolTable
 70
     1
  0
DIMSTYLE
105
27
330
A
100
AcDbSymbolTableRecord
100
AcDbDimStyleTableRecord
  2
ISO-25
 70
     0
  3

  4

  5

  6

  7

 40
1.0
 41
2.5
 42
0.625
 43
3.75
 44
1.25
 45
0.0
 46
0.0
 47
0.0
 48
0.0
140
2.5
141
2.5
142
0.0
143
0.03937007874016
144
1.0
145
0.0
146
1.0
147
0.625
 71
     0
 72
     0
 73
     0
 74
     0
 75
     0
 76
     0
 77
     1
 78
     8
170
     0
171
     3
172
     1
173
     0
174
     0
175
     0
176
     0
177
     0
178
     0
270
     2
271
     2
272
     2
273
     2
274
     3
340
11
275
     0
280
     0
281
     0
282
     0
283
     0
284
     8
285
     0
286
     0
287
     3
288
     0
  0
ENDTAB
  0
TABLE
  2
BLOCK_RECORD
  5
1
330
0
100
AcDbSymbolTable
 70
     1
  0
BLOCK_RECORD
  5
1F
330
1
100
AcDbSymbolTableRecord
100
AcDbBlockTableRecord
  2
*MODEL_SPACE
  0
BLOCK_RECORD
  5
1B
330
1
100
AcDbSymbolTableRecord
100
AcDbBlockTableRecord
  2
*PAPER_SPACE
  0
ENDTAB
  0
ENDSEC
  0
SECTION
  2
BLOCKS
  0
BLOCK
  5
20
330
1F
100
AcDbEntity
  8
0
100
AcDbBlockBegin
  2
*MODEL_SPACE
 70
     0
 10
0.0
 20
0.0
 30
0.0
  3
*MODEL_SPACE
  1

  0
ENDBLK
  5
21
330
1F
100
AcDbEntity
  8
0
100
AcDbBlockEnd
  0
BLOCK
  5
1C
330
1B
100
AcDbEntity
 67
     1
  8
0
100
AcDbBlockBegin
  2
*PAPER_SPACE
  1

  0
ENDBLK
  5
1D
330
1B
100
AcDbEntity
 67
     1
  8
0
100
AcDbBlockEnd
  0
ENDSEC
  0
SECTION
  2
ENTITIES
  0
SPLINE
  5
100
100
AcDbEntity
  8
Layer_1
 62
7
100
AcDbSpline
 70
8
 71
3
 72
8
 73
4
 74
0
 40
0
 40
0
 40
0
 40
0
 40
1
 40
1
 40
1
 40
1
 10
119.221713
 20
752.581718
 30
0.0
 10
119.365713
 20
752.005718
 30
0.0
 10
119.485713
 20
751.309718
 30
0.0
 10
119.581713
 20
750.493718
 30
0.0
  0
SPLINE
  5
101
100
AcDbEntity
  8
Layer_1
 62
7
100
AcDbSpline
 70
8
 71
3
 72
8
 73
4
 74
0
 40
0
 40
0
 40
0
 40
0
 40
1
 40
1
 40
1
 40
1
 10
119.581713
 20
750.493718
 30
0.0
 10
119.677713
 20
749.677718
 30
0.0
 10
119.725713
 20
748.861718
 30
0.0
 10
119.725713
 20
748.045718
 30
0.0
  0
SPLINE
  5
102
100
AcDbEntity
  8
Layer_1
 62
7
100
AcDbSpline
 70
8
 71
3
 72
8
 73
4
 74
0
 40
0
 40
0
 40
0
 40
0
 40
1
 40
1
 40
1
 40
1
 10
119.725713
 20
748.045718
 30
0.0
 10
119.725713
 20
744.733718
 30
0.0
 10
119.221713
 20
741.613718
 30
0.0
 10
118.213713
 20
738.685718
 30
0.0
  0
SPLINE
  5
103
100
AcDbEntity
  8
Layer_1
 62
7
100
AcDbSpline
 70
8
 71
3
 72
8
 73
4
 74
0
 40
0
 40
0
 40
0
 40
0
 40
1
 40
1
 40
1
 40
1
 10
118.213713
 20
738.685718
 30
0.0
 10
117.205713
 20
735.757718
 30
0.0
 10
115.621713
 20
733.141718
 30
0.0
 10
113.461713
 20
730.837718
 30
0.0
  0
SPLINE
  5
104
100
AcDbEntity
  8
Layer_1
 62
7
100
AcDbSpline
 70
8
 71
3
 72
8
 73
4
 74
0
 40
0
 40
0
 40
0
 40
0
 40
1
 40
1
 40
1
 40
1
 10
113.461713
 20
730.837718
 30
0.0
 10
111.157713
 20
728.389718
 30
0.0
 10
108.397713
 20
726.493718
 30
0.0
 10
105.181713
 20
725.149718
 30
0.0
  0
SPLINE
  5
105
100
AcDbEntity
  8
Layer_1
 62
7
100
AcDbSpline
 70
8
 71
3
 72
8
 73
4
 74
0
 40
0
 40
0
 40
0
 40
0
 40
1
 40
1
 40
1
 40
1
 10
105.181713
 20
725.149718
 30
0.0
 10
101.965715
 20
723.805718
 30
0.0
 10
98.293716
 20
723.133718
 30
0.0
 10
94.165716
 20
723.133718
 30
0.0
  0
SPLINE
  5
106
100
AcDbEntity
  8
Layer_1
 62
7
100
AcDbSpline
 70
8
 71
3
 72
8
 73
4
 74
0
 40
0
 40
0
 40
0
 40
0
 40
1
 40
1
 40
1
 40
1
 10
94.165716
 20
723.133718
 30
0.0
 10
90.421716
 20
723.133718
 30
0.0
 10
86.893716
 20
723.805718
 30
0.0
 10
83.581716
 20
725.149718
 30
0.0
  0
SPLINE
  5
107
100
AcDbEntity
  8
Layer_1
 62
7
100
AcDbSpline
 70
8
 71
3
 72
8
 73
4
 74
0
 40
0
 40
0
 40
0
 40
0
 40
1
 40
1
 40
1
 40
1
 10
83.581716
 20
725.149718
 30
0.0
 10
80.269716
 20
726.493718
 30
0.0
 10
77.389716
 20
728.365718
 30
0.0
 10
74.941716
 20
730.765718
 30
0.0
  0
SPLINE
  5
108
100
AcDbEntity
  8
Layer_1
 62
7
100
AcDbSpline
 70
8
 71
3
 72
8
 73
4
 74
0
 40
0
 40
0
 40
0
 40
0
 40
1
 40
1
 40
1
 40
1
 10
74.941716
 20
730.765718
 30
0.0
 10
72.493716
 20
733.165718
 30
0.0
 10
70.549716
 20
735.997718
 30
0.0
 10
69.109716
 20
739.261718
 30
0.0
  0
SPLINE
  5
109
100
AcDbEntity
  8
Layer_1
 62
7
100
AcDbSpline
 70
8
 71
3
 72
8
 73
4
 74
0
 40
0
 40
0
 40
0
 40
0
 40
1
 40
1
 40
1
 40
1
 10
69.109716
 20
739.261718
 30
0.0
 10
67.669716
 20
742.573718
 30
0.0
 10
66.949716
 20
746.173718
 30
0.0
 10
66.949716
 20
750.061718
 30
0.0
  0
SPLINE
  5
10a
100
AcDbEntity
  8
Layer_1
 62
7
100
AcDbSpline
 70
8
 71
3
 72
8
 73
4
 74
0
 40
0
 40
0
 40
0
 40
0
 40
1
 40
1
 40
1
 40
1
 10
66.949716
 20
750.061718
 30
0.0
 10
66.949716
 20
753.949718
 30
0.0
 10
67.669716
 20
757.525717
 30
0.0
 10
69.109716
 20
760.789715
 30
0.0
  0
SPLINE
  5
10b
100
AcDbEntity
  8
Layer_1
 62
7
100
AcDbSpline
 70
8
 71
3
 72
8
 73
4
 74
0
 40
0
 40
0
 40
0
 40
0
 40
1
 40
1
 40
1
 40
1
 10
69.109716
 20
760.789715
 30
0.0
 10
70.549716
 20
764.101715
 30
0.0
 10
72.493716
 20
766.957715
 30
0.0
 10
74.941716
 20
769.357715
 30
0.0
  0
SPLINE
  5
10c
100
AcDbEntity
  8
Layer_1
 62
7
100
AcDbSpline
 70
8
 71
3
 72
8
 73
4
 74
0
 40
0
 40
0
 40
0
 40
0
 40
1
 40
1
 40
1
 40
1
 10
74.941716
 20
769.357715
 30
0.0
 10
77.389716
 20
771.757715
 30
0.0
 10
80.269716
 20
773.629715
 30
0.0
 10
83.581716
 20
774.973715
 30
0.0
  0
SPLINE
  5
10d
100
AcDbEntity
  8
Layer_1
 62
7
100
AcDbSpline
 70
8
 71
3
 72
8
 73
4
 74
0
 40
0
 40
0
 40
0
 40
0
 40
1
 40
1
 40
1
 40
1
 10
83.581716
 20
774.973715
 30
0.0
 10
86.893716
 20
776.317715
 30
0.0
 10
90.421716
 20
776.989715
 30
0.0
 10
94.165716
 20
776.989715
 30
0.0
  0
SPLINE
  5
10e
100
AcDbEntity
  8
Layer_1
 62
7
100
AcDbSpline
 70
8
 71
3
 72
8
 73
4
 74
0
 40
0
 40
0
 40
0
 40
0
 40
1
 40
1
 40
1
 40
1
 10
94.165716
 20
776.989715
 30
0.0
 10
98.341716
 20
776.989715
 30
0.0
 10
102.061715
 20
776.269715
 30
0.0
 10
105.325713
 20
774.829715
 30
0.0
  0
SPLINE
  5
10f
100
AcDbEntity
  8
Layer_1
 62
7
100
AcDbSpline
 70
8
 71
3
 72
8
 73
4
 74
0
 40
0
 40
0
 40
0
 40
0
 40
1
 40
1
 40
1
 40
1
 10
105.325713
 20
774.829715
 30
0.0
 10
108.637713
 20
773.389715
 30
0.0
 10
111.469713
 20
771.397715
 30
0.0
 10
113.821713
 20
768.853715
 30
0.0
  0
LWPOLYLINE
  5
110
100
AcDbEntity
  8
Layer_1
 62
7
100
AcDbPolyline
 90
2
 70
0
 10
93.949716
 20
752.581718
 30
0.0
 10
119.221713
 20
752.581718
 30
0.0
  0
SPLINE
  5
111
100
AcDbEntity
  8
Layer_1
 62
7
100
AcDbSpline
 70
8
 71
3
 72
8
 73
4
 74
0
 40
0
 40
0
 40
0
 40
0
 40
1
 40
1
 40
1
 40
1
 10
107.125713
 20
762.301715
 30
0.0
 10
105.445713
 20
764.077715
 30
0.0
 10
103.573714
 20
765.421715
 30
0.0
 10
101.509716
 20
766.333715
 30
0.0
  0
SPLINE
  5
112
100
AcDbEntity
  8
Layer_1
 62
7
100
AcDbSpline
 70
8
 71
3
 72
8
 73
4
 74
0
 40
0
 40
0
 40
0
 40
0
 40
1
 40
1
 40
1
 40
1
 10
101.509716
 20
766.333715
 30
0.0
 10
99.445716
 20
767.293715
 30
0.0
 10
96.973716
 20
767.773715
 30
0.0
 10
94.093716
 20
767.773715
 30
0.0
  0
SPLINE
  5
113
100
AcDbEntity
  8
Layer_1
 62
7
100
AcDbSpline
 70
8
 71
3
 72
8
 73
4
 74
0
 40
0
 40
0
 40
0
 40
0
 40
1
 40
1
 40
1
 40
1
 10
94.093716
 20
767.773715
 30
0.0
 10
91.741716
 20
767.773715
 30
0.0
 10
89.509716
 20
767.341715
 30
0.0
 10
87.397716
 20
766.477715
 30
0.0
  0
SPLINE
  5
114
100
AcDbEntity
  8
Layer_1
 62
7
100
AcDbSpline
 70
8
 71
3
 72
8
 73
4
 74
0
 40
0
 40
0
 40
0
 40
0
 40
1
 40
1
 40
1
 40
1
 10
87.397716
 20
766.477715
 30
0.0
 10
85.285716
 20
765.661715
 30
0.0
 10
83.437716
 20
764.485715
 30
0.0
 10
81.853716
 20
762.949715
 30
0.0
  0
SPLINE
  5
115
100
AcDbEntity
  8
Layer_1
 62
7
100
AcDbSpline
 70
8
 71
3
 72
8
 73
4
 74
0
 40
0
 40
0
 40
0
 40
0
 40
1
 40
1
 40
1
 40
1
 10
81.853716
 20
762.949715
 30
0.0
 10
80.269716
 20
761.413715
 30
0.0
 10
78.997716
 20
759.541715
 30
0.0
 10
78.037716
 20
757.333715
 30
0.0
  0
SPLINE
  5
116
100
AcDbEntity
  8
Layer_1
 62
7
100
AcDbSpline
 70
8
 71
3
 72
8
 73
4
 74
0
 40
0
 40
0
 40
0
 40
0
 40
1
 40
1
 40
1
 40
1
 10
78.037716
 20
757.333715
 30
0.0
 10
77.125716
 20
755.173717
 30
0.0
 10
76.669716
 20
752.749718
 30
0.0
 10
76.669716
 20
750.061718
 30
0.0
  0
SPLINE
  5
117
100
AcDbEntity
  8
Layer_1
 62
7
100
AcDbSpline
 70
8
 71
3
 72
8
 73
4
 74
0
 40
0
 40
0
 40
0
 40
0
 40
1
 40
1
 40
1
 40
1
 10
76.669716
 20
750.061718
 30
0.0
 10
76.669716
 20
747.373718
 30
0.0
 10
77.125716
 20
744.925718
 30
0.0
 10
78.037716
 20
742.717718
 30
0.0
  0
SPLINE
  5
118
100
AcDbEntity
  8
Layer_1
 62
7
100
AcDbSpline
 70
8
 71
3
 72
8
 73
4
 74
0
 40
0
 40
0
 40
0
 40
0
 40
1
 40
1
 40
1
 40
1
 10
78.037716
 20
742.717718
 30
0.0
 10
78.997716
 20
740.557718
 30
0.0
 10
80.269716
 20
738.709718
 30
0.0
 10
81.853716
 20
737.173718
 30
0.0
  0
SPLINE
  5
119
100
AcDbEntity
  8
Layer_1
 62
7
100
AcDbSpline
 70
8
 71
3
 72
8
 73
4
 74
0
 40
0
 40
0
 40
0
 40
0
 40
1
 40
1
 40
1
 40
1
 10
81.853716
 20
737.173718
 30
0.0
 10
83.485716
 20
735.637718
 30
0.0
 10
85.357716
 20
734.437718
 30
0.0
 10
87.469716
 20
733.573718
 30
0.0
  0
SPLINE
  5
11a
100
AcDbEntity
  8
Layer_1
 62
7
100
AcDbSpline
 70
8
 71
3
 72
8
 73
4
 74
0
 40
0
 40
0
 40
0
 40
0
 40
1
 40
1
 40
1
 40
1
 10
87.469716
 20
733.573718
 30
0.0
 10
89.581716
 20
732.757718
 30
0.0
 10
91.837716
 20
732.349718
 30
0.0
 10
94.237716
 20
732.349718
 30
0.0
  0
SPLINE
  5
11b
100
AcDbEntity
  8
Layer_1
 62
7
100
AcDbSpline
 70
8
 71
3
 72
8
 73
4
 74
0
 40
0
 40
0
 40
0
 40
0
 40
1
 40
1
 40
1
 40
1
 10
94.237716
 20
732.349718
 30
0.0
 10
96.973716
 20
732.349718
 30
0.0
 10
99.277716
 20
732.733718
 30
0.0
 10
101.149716
 20
733.501718
 30
0.0
  0
SPLINE
  5
11c
100
AcDbEntity
  8
Layer_1
 62
7
100
AcDbSpline
 70
8
 71
3
 72
8
 73
4
 74
0
 40
0
 40
0
 40
0
 40
0
 40
1
 40
1
 40
1
 40
1
 10
101.149716
 20
733.501718
 30
0.0
 10
103.069714
 20
734.317718
 30
0.0
 10
104.701713
 20
735.349718
 30
0.0
 10
106.045713
 20
736.597718
 30
0.0
  0
SPLINE
  5
11d
100
AcDbEntity
  8
Layer_1
 62
7
100
AcDbSpline
 70
8
 71
3
 72
8
 73
4
 74
0
 40
0
 40
0
 40
0
 40
0
 40
1
 40
1
 40
1
 40
1
 10
106.045713
 20
736.597718
 30
0.0
 10
107.005713
 20
737.461718
 30
0.0
 10
107.821713
 20
738.541718
 30
0.0
 10
108.493713
 20
739.837718
 30
0.0
  0
SPLINE
  5
11e
100
AcDbEntity
  8
Layer_1
 62
7
100
AcDbSpline
 70
8
 71
3
 72
8
 73
4
 74
0
 40
0
 40
0
 40
0
 40
0
 40
1
 40
1
 40
1
 40
1
 10
108.493713
 20
739.837718
 30
0.0
 10
109.213713
 20
741.181718
 30
0.0
 10
109.765713
 20
742.669718
 30
0.0
 10
110.149713
 20
744.301718
 30
0.0
  0
LWPOLYLINE
  5
11f
100
AcDbEntity
  8
Layer_1
 62
7
100
AcDbPolyline
 90
2
 70
0
 10
113.821713
 20
768.853715
 30
0.0
 10
107.125713
 20
762.301715
 30
0.0
  0
SPLINE
  5
120
100
AcDbEntity
  8
Layer_1
 62
7
100
AcDbSpline
 70
8
 71
3
 72
8
 73
4
 74
0
 40
0
 40
0
 40
0
 40
0
 40
1
 40
1
 40
1
 40
1
 10
142.959214
 20
760.717715
 30
0.0
 10
145.695214
 20
760.717715
 30
0.0
 10
148.191214
 20
760.237715
 30
0.0
 10
150.447214
 20
759.277715
 30
0.0
  0
SPLINE
  5
121
100
AcDbEntity
  8
Layer_1
 62
7
100
AcDbSpline
 70
8
 71
3
 72
8
 73
4
 74
0
 40
0
 40
0
 40
0
 40
0
 40
1
 40
1
 40
1
 40
1
 10
150.447214
 20
759.277715
 30
0.0
 10
152.751214
 20
758.365715
 30
0.0
 10
154.719214
 20
757.069716
 30
0.0
 10
156.351214
 20
755.389718
 30
0.0
  0
SPLINE
  5
122
100
AcDbEntity
  8
Layer_1
 62
7
100
AcDbSpline
 70
8
 71
3
 72
8
 73
4
 74
0
 40
0
 40
0
 40
0
 40
0
 40
1
 40
1
 40
1
 40
1
 10
156.351214
 20
755.389718
 30
0.0
 10
158.031214
 20
753.757718
 30
0.0
 10
159.327214
 20
751.789718
 30
0.0
 10
160.239214
 20
749.485718
 30
0.0
  0
SPLINE
  5
123
100
AcDbEntity
  8
Layer_1
 62
7
100
AcDbSpline
 70
8
 71
3
 72
8
 73
4
 74
0
 40
0
 40
0
 40
0
 40
0
 40
1
 40
1
 40
1
 40
1
 10
160.239214
 20
749.485718
 30
0.0
 10
161.199214
 20
747.181718
 30
0.0
 10
161.679214
 20
744.661718
 30
0.0
 10
161.679214
 20
741.925718
 30
0.0
  0
SPLINE
  5
124
100
AcDbEntity
  8
Layer_1
 62
7
100
AcDbSpline
 70
8
 71
3
 72
8
 73
4
 74
0
 40
0
 40
0
 40
0
 40
0
 40
1
 40
1
 40
1
 40
1
 10
161.679214
 20
741.925718
 30
0.0
 10
161.679214
 20
739.189718
 30
0.0
 10
161.199214
 20
736.669718
 30
0.0
 10
160.239214
 20
734.365718
 30
0.0
  0
SPLINE
  5
125
100
AcDbEntity
  8
Layer_1
 62
7
100
AcDbSpline
 70
8
 71
3
 72
8
 73
4
 74
0
 40
0
 40
0
 40
0
 40
0
 40
1
 40
1
 40
1
 40
1
 10
160.239214
 20
734.365718
 30
0.0
 10
159.327214
 20
732.061718
 30
0.0
 10
158.031214
 20
730.069718
 30
0.0
 10
156.351214
 20
728.389718
 30
0.0
  0
SPLINE
  5
126
100
AcDbEntity
  8
Layer_1
 62
7
100
AcDbSpline
 70
8
 71
3
 72
8
 73
4
 74
0
 40
0
 40
0
 40
0
 40
0
 40
1
 40
1
 40
1
 40
1
 10
156.351214
 20
728.389718
 30
0.0
 10
154.719214
 20
726.757718
 30
0.0
 10
152.751214
 20
725.461718
 30
0.0
 10
150.447214
 20
724.501718
 30
0.0
  0
SPLINE
  5
127
100
AcDbEntity
  8
Layer_1
 62
7
100
AcDbSpline
 70
8
 71
3
 72
8
 73
4
 74
0
 40
0
 40
0
 40
0
 40
0
 40
1
 40
1
 40
1
 40
1
 10
150.447214
 20
724.501718
 30
0.0
 10
148.191214
 20
723.589718
 30
0.0
 10
145.695214
 20
723.133718
 30
0.0
 10
142.959214
 20
723.133718
 30
0.0
  0
SPLINE
  5
128
100
AcDbEntity
  8
Layer_1
 62
7
100
AcDbSpline
 70
8
 71
3
 72
8
 73
4
 74
0
 40
0
 40
0
 40
0
 40
0
 40
1
 40
1
 40
1
 40
1
 10
142.959214
 20
723.133718
 30
0.0
 10
140.223214
 20
723.133718
 30
0.0
 10
137.703214
 20
723.589718
 30
0.0
 10
135.399214
 20
724.501718
 30
0.0
  0
SPLINE
  5
129
100
AcDbEntity
  8
Layer_1
 62
7
100
AcDbSpline
 70
8
 71
3
 72
8
 73
4
 74
0
 40
0
 40
0
 40
0
 40
0
 40
1
 40
1
 40
1
 40
1
 10
135.399214
 20
724.501718
 30
0.0
 10
133.143214
 20
725.461718
 30
0.0
 10
131.175214
 20
726.757718
 30
0.0
 10
129.495214
 20
728.389718
 30
0.0
  0
SPLINE
  5
12a
100
AcDbEntity
  8
Layer_1
 62
7
100
AcDbSpline
 70
8
 71
3
 72
8
 73
4
 74
0
 40
0
 40
0
 40
0
 40
0
 40
1
 40
1
 40
1
 40
1
 10
129.495214
 20
728.389718
 30
0.0
 10
127.863214
 20
730.069718
 30
0.0
 10
126.567214
 20
732.061718
 30
0.0
 10
125.607214
 20
734.365718
 30
0.0
  0
SPLINE
  5
12b
100
AcDbEntity
  8
Layer_1
 62
7
100
AcDbSpline
 70
8
 71
3
 72
8
 73
4
 74
0
 40
0
 40
0
 40
0
 40
0
 40
1
 40
1
 40
1
 40
1
 10
125.607214
 20
734.365718
 30
0.0
 10
124.695214
 20
736.669718
 30
0.0
 10
124.239214
 20
739.189718
 30
0.0
 10
124.239214
 20
741.925718
 30
0.0
  0
SPLINE
  5
12c
100
AcDbEntity
  8
Layer_1
 62
7
100
AcDbSpline
 70
8
 71
3
 72
8
 73
4
 74
0
 40
0
 40
0
 40
0
 40
0
 40
1
 40
1
 40
1
 40
1
 10
124.239214
 20
741.925718
 30
0.0
 10
124.239214
 20
744.661718
 30
0.0
 10
124.695214
 20
747.181718
 30
0.0
 10
125.607214
 20
749.485718
 30
0.0
  0
SPLINE
  5
12d
100
AcDbEntity
  8
Layer_1
 62
7
100
AcDbSpline
 70
8
 71
3
 72
8
 73
4
 74
0
 40
0
 40
0
 40
0
 40
0
 40
1
 40
1
 40
1
 40
1
 10
125.607214
 20
749.485718
 30
0.0
 10
126.567214
 20
751.789718
 30
0.0
 10
127.863214
 20
753.757718
 30
0.0
 10
129.495214
 20
755.389718
 30
0.0
  0
SPLINE
  5
12e
100
AcDbEntity
  8
Layer_1
 62
7
100
AcDbSpline
 70
8
 71
3
 72
8
 73
4
 74
0
 40
0
 40
0
 40
0
 40
0
 40
1
 40
1
 40
1
 40
1
 10
129.495214
 20
755.389718
 30
0.0
 10
131.175214
 20
757.069716
 30
0.0
 10
133.143214
 20
758.365715
 30
0.0
 10
135.399214
 20
759.277715
 30
0.0
  0
SPLINE
  5
12f
100
AcDbEntity
  8
Layer_1
 62
7
100
AcDbSpline
 70
8
 71
3
 72
8
 73
4
 74
0
 40
0
 40
0
 40
0
 40
0
 40
1
 40
1
 40
1
 40
1
 10
135.399214
 20
759.277715
 30
0.0
 10
137.703214
 20
760.237715
 30
0.0
 10
140.223214
 20
760.717715
 30
0.0
 10
142.959214
 20
760.717715
 30
0.0
  0
LWPOLYLINE
  5
130
100
AcDbEntity
  8
Layer_1
 62
7
100
AcDbPolyline
 90
3
 70
0
 10
110.149713
 20
744.301718
 30
0.0
 10
93.949716
 20
744.301718
 30
0.0
 10
93.949716
 20
752.581718
 30
0.0
  0
SPLINE
  5
131
100
AcDbEntity
  8
Layer_1
 62
7
100
AcDbSpline
 70
8
 71
3
 72
8
 73
4
 74
0
 40
0
 40
0
 40
0
 40
0
 40
1
 40
1
 40
1
 40
1
 10
142.959214
 20
731.845718
 30
0.0
 10
144.159214
 20
731.845718
 30
0.0
 10
145.311214
 20
732.061718
 30
0.0
 10
146.415214
 20
732.493718
 30
0.0
  0
SPLINE
  5
132
100
AcDbEntity
  8
Layer_1
 62
7
100
AcDbSpline
 70
8
 71
3
 72
8
 73
4
 74
0
 40
0
 40
0
 40
0
 40
0
 40
1
 40
1
 40
1
 40
1
 10
146.415214
 20
732.493718
 30
0.0
 10
147.567214
 20
732.973718
 30
0.0
 10
148.575214
 20
733.645718
 30
0.0
 10
149.439214
 20
734.509718
 30
0.0
  0
SPLINE
  5
133
100
AcDbEntity
  8
Layer_1
 62
7
100
AcDbSpline
 70
8
 71
3
 72
8
 73
4
 74
0
 40
0
 40
0
 40
0
 40
0
 40
1
 40
1
 40
1
 40
1
 10
149.439214
 20
734.509718
 30
0.0
 10
150.303214
 20
735.373718
 30
0.0
 10
150.975214
 20
736.429718
 30
0.0
 10
151.455214
 20
737.677718
 30
0.0
  0
SPLINE
  5
134
100
AcDbEntity
  8
Layer_1
 62
7
100
AcDbSpline
 70
8
 71
3
 72
8
 73
4
 74
0
 40
0
 40
0
 40
0
 40
0
 40
1
 40
1
 40
1
 40
1
 10
151.455214
 20
737.677718
 30
0.0
 10
151.983214
 20
738.925718
 30
0.0
 10
152.247214
 20
740.341718
 30
0.0
 10
152.247214
 20
741.925718
 30
0.0
  0
SPLINE
  5
135
100
AcDbEntity
  8
Layer_1
 62
7
100
AcDbSpline
 70
8
 71
3
 72
8
 73
4
 74
0
 40
0
 40
0
 40
0
 40
0
 40
1
 40
1
 40
1
 40
1
 10
152.247214
 20
741.925718
 30
0.0
 10
152.247214
 20
743.509718
 30
0.0
 10
151.983214
 20
744.925718
 30
0.0
 10
151.455214
 20
746.173718
 30
0.0
  0
SPLINE
  5
136
100
AcDbEntity
  8
Layer_1
 62
7
100
AcDbSpline
 70
8
 71
3
 72
8
 73
4
 74
0
 40
0
 40
0
 40
0
 40
0
 40
1
 40
1
 40
1
 40
1
 10
151.455214
 20
746.173718
 30
0.0
 10
150.975214
 20
747.421718
 30
0.0
 10
150.303214
 20
748.477718
 30
0.0
 10
149.439214
 20
749.341718
 30
0.0
  0
SPLINE
  5
137
100
AcDbEntity
  8
Layer_1
 62
7
100
AcDbSpline
 70
8
 71
3
 72
8
 73
4
 74
0
 40
0
 40
0
 40
0
 40
0
 40
1
 40
1
 40
1
 40
1
 10
149.439214
 20
749.341718
 30
0.0
 10
148.575214
 20
750.205718
 30
0.0
 10
147.567214
 20
750.853718
 30
0.0
 10
146.415214
 20
751.285718
 30
0.0
  0
SPLINE
  5
138
100
AcDbEntity
  8
Layer_1
 62
7
100
AcDbSpline
 70
8
 71
3
 72
8
 73
4
 74
0
 40
0
 40
0
 40
0
 40
0
 40
1
 40
1
 40
1
 40
1
 10
146.415214
 20
751.285718
 30
0.0
 10
145.311214
 20
751.765718
 30
0.0
 10
144.159214
 20
752.005718
 30
0.0
 10
142.959214
 20
752.005718
 30
0.0
  0
SPLINE
  5
139
100
AcDbEntity
  8
Layer_1
 62
7
100
AcDbSpline
 70
8
 71
3
 72
8
 73
4
 74
0
 40
0
 40
0
 40
0
 40
0
 40
1
 40
1
 40
1
 40
1
 10
142.959214
 20
752.005718
 30
0.0
 10
141.711214
 20
752.005718
 30
0.0
 10
140.535214
 20
751.765718
 30
0.0
 10
139.431214
 20
751.285718
 30
0.0
  0
SPLINE
  5
13a
100
AcDbEntity
  8
Layer_1
 62
7
100
AcDbSpline
 70
8
 71
3
 72
8
 73
4
 74
0
 40
0
 40
0
 40
0
 40
0
 40
1
 40
1
 40
1
 40
1
 10
139.431214
 20
751.285718
 30
0.0
 10
138.327214
 20
750.853718
 30
0.0
 10
137.343214
 20
750.205718
 30
0.0
 10
136.479214
 20
749.341718
 30
0.0
  0
SPLINE
  5
13b
100
AcDbEntity
  8
Layer_1
 62
7
100
AcDbSpline
 70
8
 71
3
 72
8
 73
4
 74
0
 40
0
 40
0
 40
0
 40
0
 40
1
 40
1
 40
1
 40
1
 10
136.479214
 20
749.341718
 30
0.0
 10
135.615214
 20
748.477718
 30
0.0
 10
134.919214
 20
747.421718
 30
0.0
 10
134.391214
 20
746.173718
 30
0.0
  0
SPLINE
  5
13c
100
AcDbEntity
  8
Layer_1
 62
7
100
AcDbSpline
 70
8
 71
3
 72
8
 73
4
 74
0
 40
0
 40
0
 40
0
 40
0
 40
1
 40
1
 40
1
 40
1
 10
134.391214
 20
746.173718
 30
0.0
 10
133.911214
 20
744.925718
 30
0.0
 10
133.671214
 20
743.509718
 30
0.0
 10
133.671214
 20
741.925718
 30
0.0
  0
SPLINE
  5
13d
100
AcDbEntity
  8
Layer_1
 62
7
100
AcDbSpline
 70
8
 71
3
 72
8
 73
4
 74
0
 40
0
 40
0
 40
0
 40
0
 40
1
 40
1
 40
1
 40
1
 10
133.671214
 20
741.925718
 30
0.0
 10
133.671214
 20
740.341718
 30
0.0
 10
133.911214
 20
738.925718
 30
0.0
 10
134.391214
 20
737.677718
 30
0.0
  0
SPLINE
  5
13e
100
AcDbEntity
  8
Layer_1
 62
7
100
AcDbSpline
 70
8
 71
3
 72
8
 73
4
 74
0
 40
0
 40
0
 40
0
 40
0
 40
1
 40
1
 40
1
 40
1
 10
134.391214
 20
737.677718
 30
0.0
 10
134.919214
 20
736.429718
 30
0.0
 10
135.615214
 20
735.373718
 30
0.0
 10
136.479214
 20
734.509718
 30
0.0
  0
SPLINE
  5
13f
100
AcDbEntity
  8
Layer_1
 62
7
100
AcDbSpline
 70
8
 71
3
 72
8
 73
4
 74
0
 40
0
 40
0
 40
0
 40
0
 40
1
 40
1
 40
1
 40
1
 10
136.479214
 20
734.509718
 30
0.0
 10
137.343214
 20
733.645718
 30
0.0
 10
138.327214
 20
732.973718
 30
0.0
 10
139.431214
 20
732.493718
 30
0.0
  0
SPLINE
  5
140
100
AcDbEntity
  8
Layer_1
 62
7
100
AcDbSpline
 70
8
 71
3
 72
8
 73
4
 74
0
 40
0
 40
0
 40
0
 40
0
 40
1
 40
1
 40
1
 40
1
 10
139.431214
 20
732.493718
 30
0.0
 10
140.535214
 20
732.061718
 30
0.0
 10
141.711214
 20
731.845718
 30
0.0
 10
142.959214
 20
731.845718
 30
0.0
  0
LWPOLYLINE
  5
141
100
AcDbEntity
  8
Layer_1
 62
7
100
AcDbPolyline
 90
1
 70
1
 10
142.959214
 20
760.717715
 30
0.0
  0
SPLINE
  5
142
100
AcDbEntity
  8
Layer_1
 62
7
100
AcDbSpline
 70
8
 71
3
 72
8
 73
4
 74
0
 40
0
 40
0
 40
0
 40
0
 40
1
 40
1
 40
1
 40
1
 10
184.011593
 20
707.581718
 30
0.0
 10
181.515593
 20
707.581718
 30
0.0
 10
179.283593
 20
707.917718
 30
0.0
 10
177.315593
 20
708.589718
 30
0.0
  0
SPLINE
  5
143
100
AcDbEntity
  8
Layer_1
 62
7
100
AcDbSpline
 70
8
 71
3
 72
8
 73
4
 74
0
 40
0
 40
0
 40
0
 40
0
 40
1
 40
1
 40
1
 40
1
 10
177.315593
 20
708.589718
 30
0.0
 10
175.395593
 20
709.213718
 30
0.0
 10
173.715593
 20
710.053718
 30
0.0
 10
172.275593
 20
711.109718
 30
0.0
  0
SPLINE
  5
144
100
AcDbEntity
  8
Layer_1
 62
7
100
AcDbSpline
 70
8
 71
3
 72
8
 73
4
 74
0
 40
0
 40
0
 40
0
 40
0
 40
1
 40
1
 40
1
 40
1
 10
172.275593
 20
711.109718
 30
0.0
 10
170.835593
 20
712.117718
 30
0.0
 10
169.635593
 20
713.245718
 30
0.0
 10
168.675593
 20
714.493718
 30
0.0
  0
SPLINE
  5
145
100
AcDbEntity
  8
Layer_1
 62
7
100
AcDbSpline
 70
8
 71
3
 72
8
 73
4
 74
0
 40
0
 40
0
 40
0
 40
0
 40
1
 40
1
 40
1
 40
1
 10
168.675593
 20
714.493718
 30
0.0
 10
167.715593
 20
715.741718
 30
0.0
 10
167.019593
 20
716.989718
 30
0.0
 10
166.587593
 20
718.237718
 30
0.0
  0
LWPOLYLINE
  5
146
100
AcDbEntity
  8
Layer_1
 62
7
100
AcDbPolyline
 90
1
 70
1
 10
142.959214
 20
731.845718
 30
0.0
  0
SPLINE
  5
147
100
AcDbEntity
  8
Layer_1
 62
7
100
AcDbSpline
 70
8
 71
3
 72
8
 73
4
 74
0
 40
0
 40
0
 40
0
 40
0
 40
1
 40
1
 40
1
 40
1
 10
175.587593
 20
721.837718
 30
0.0
 10
176.259593
 20
719.965718
 30
0.0
 10
177.363593
 20
718.525718
 30
0.0
 10
178.899593
 20
717.517718
 30
0.0
  0
SPLINE
  5
148
100
AcDbEntity
  8
Layer_1
 62
7
100
AcDbSpline
 70
8
 71
3
 72
8
 73
4
 74
0
 40
0
 40
0
 40
0
 40
0
 40
1
 40
1
 40
1
 40
1
 10
178.899593
 20
717.517718
 30
0.0
 10
180.435593
 20
716.461718
 30
0.0
 10
182.139593
 20
715.933718
 30
0.0
 10
184.011593
 20
715.933718
 30
0.0
  0
SPLINE
  5
149
100
AcDbEntity
  8
Layer_1
 62
7
100
AcDbSpline
 70
8
 71
3
 72
8
 73
4
 74
0
 40
0
 40
0
 40
0
 40
0
 40
1
 40
1
 40
1
 40
1
 10
184.011593
 20
715.933718
 30
0.0
 10
186.987593
 20
715.933718
 30
0.0
 10
189.339593
 20
716.869718
 30
0.0
 10
191.067593
 20
718.741718
 30
0.0
  0
SPLINE
  5
14a
100
AcDbEntity
  8
Layer_1
 62
7
100
AcDbSpline
 70
8
 71
3
 72
8
 73
4
 74
0
 40
0
 40
0
 40
0
 40
0
 40
1
 40
1
 40
1
 40
1
 10
191.067593
 20
718.741718
 30
0.0
 10
192.795593
 20
720.565718
 30
0.0
 10
193.659593
 20
723.133718
 30
0.0
 10
193.659593
 20
726.445718
 30
0.0
  0
LWPOLYLINE
  5
14b
100
AcDbEntity
  8
Layer_1
 62
7
100
AcDbPolyline
 90
2
 70
0
 10
166.587593
 20
718.237718
 30
0.0
 10
175.587593
 20
721.837718
 30
0.0
  0
SPLINE
  5
14c
100
AcDbEntity
  8
Layer_1
 62
7
100
AcDbSpline
 70
8
 71
3
 72
8
 73
4
 74
0
 40
0
 40
0
 40
0
 40
0
 40
1
 40
1
 40
1
 40
1
 10
193.083593
 20
728.893718
 30
0.0
 10
191.979593
 20
727.357718
 30
0.0
 10
190.515593
 20
726.133718
 30
0.0
 10
188.691593
 20
725.221718
 30
0.0
  0
SPLINE
  5
14d
100
AcDbEntity
  8
Layer_1
 62
7
100
AcDbSpline
 70
8
 71
3
 72
8
 73
4
 74
0
 40
0
 40
0
 40
0
 40
0
 40
1
 40
1
 40
1
 40
1
 10
188.691593
 20
725.221718
 30
0.0
 10
186.915593
 20
724.357718
 30
0.0
 10
184.803593
 20
723.925718
 30
0.0
 10
182.355593
 20
723.925718
 30
0.0
  0
SPLINE
  5
14e
100
AcDbEntity
  8
Layer_1
 62
7
100
AcDbSpline
 70
8
 71
3
 72
8
 73
4
 74
0
 40
0
 40
0
 40
0
 40
0
 40
1
 40
1
 40
1
 40
1
 10
182.355593
 20
723.925718
 30
0.0
 10
180.243593
 20
723.925718
 30
0.0
 10
178.179593
 20
724.357718
 30
0.0
 10
176.163593
 20
725.221718
 30
0.0
  0
SPLINE
  5
14f
100
AcDbEntity
  8
Layer_1
 62
7
100
AcDbSpline
 70
8
 71
3
 72
8
 73
4
 74
0
 40
0
 40
0
 40
0
 40
0
 40
1
 40
1
 40
1
 40
1
 10
176.163593
 20
725.221718
 30
0.0
 10
174.195593
 20
726.085718
 30
0.0
 10
172.443593
 20
727.309718
 30
0.0
 10
170.907593
 20
728.893718
 30
0.0
  0
SPLINE
  5
150
100
AcDbEntity
  8
Layer_1
 62
7
100
AcDbSpline
 70
8
 71
3
 72
8
 73
4
 74
0
 40
0
 40
0
 40
0
 40
0
 40
1
 40
1
 40
1
 40
1
 10
170.907593
 20
728.893718
 30
0.0
 10
169.371593
 20
730.525718
 30
0.0
 10
168.123593
 20
732.469718
 30
0.0
 10
167.163593
 20
734.725718
 30
0.0
  0
SPLINE
  5
151
100
AcDbEntity
  8
Layer_1
 62
7
100
AcDbSpline
 70
8
 71
3
 72
8
 73
4
 74
0
 40
0
 40
0
 40
0
 40
0
 40
1
 40
1
 40
1
 40
1
 10
167.163593
 20
734.725718
 30
0.0
 10
166.203593
 20
736.981718
 30
0.0
 10
165.723593
 20
739.501718
 30
0.0
 10
165.723593
 20
742.285718
 30
0.0
  0
SPLINE
  5
152
100
AcDbEntity
  8
Layer_1
 62
7
100
AcDbSpline
 70
8
 71
3
 72
8
 73
4
 74
0
 40
0
 40
0
 40
0
 40
0
 40
1
 40
1
 40
1
 40
1
 10
165.723593
 20
742.285718
 30
0.0
 10
165.723593
 20
745.069718
 30
0.0
 10
166.203593
 20
747.589718
 30
0.0
 10
167.163593
 20
749.845718
 30
0.0
  0
SPLINE
  5
153
100
AcDbEntity
  8
Layer_1
 62
7
100
AcDbSpline
 70
8
 71
3
 72
8
 73
4
 74
0
 40
0
 40
0
 40
0
 40
0
 40
1
 40
1
 40
1
 40
1
 10
167.163593
 20
749.845718
 30
0.0
 10
168.123593
 20
752.149718
 30
0.0
 10
169.371593
 20
754.093718
 30
0.0
 10
170.907593
 20
755.677718
 30
0.0
  0
SPLINE
  5
154
100
AcDbEntity
  8
Layer_1
 62
7
100
AcDbSpline
 70
8
 71
3
 72
8
 73
4
 74
0
 40
0
 40
0
 40
0
 40
0
 40
1
 40
1
 40
1
 40
1
 10
170.907593
 20
755.677718
 30
0.0
 10
172.443593
 20
757.309716
 30
0.0
 10
174.195593
 20
758.557715
 30
0.0
 10
176.163593
 20
759.421715
 30
0.0
  0
SPLINE
  5
155
100
AcDbEntity
  8
Layer_1
 62
7
100
AcDbSpline
 70
8
 71
3
 72
8
 73
4
 74
0
 40
0
 40
0
 40
0
 40
0
 40
1
 40
1
 40
1
 40
1
 10
176.163593
 20
759.421715
 30
0.0
 10
178.179593
 20
760.285715
 30
0.0
 10
180.243593
 20
760.717715
 30
0.0
 10
182.355593
 20
760.717715
 30
0.0
  0
SPLINE
  5
156
100
AcDbEntity
  8
Layer_1
 62
7
100
AcDbSpline
 70
8
 71
3
 72
8
 73
4
 74
0
 40
0
 40
0
 40
0
 40
0
 40
1
 40
1
 40
1
 40
1
 10
182.355593
 20
760.717715
 30
0.0
 10
184.803593
 20
760.717715
 30
0.0
 10
186.915593
 20
760.261715
 30
0.0
 10
188.691593
 20
759.349715
 30
0.0
  0
SPLINE
  5
157
100
AcDbEntity
  8
Layer_1
 62
7
100
AcDbSpline
 70
8
 71
3
 72
8
 73
4
 74
0
 40
0
 40
0
 40
0
 40
0
 40
1
 40
1
 40
1
 40
1
 10
188.691593
 20
759.349715
 30
0.0
 10
190.515593
 20
758.485715
 30
0.0
 10
191.979593
 20
757.285716
 30
0.0
 10
193.083593
 20
755.749718
 30
0.0
  0
LWPOLYLINE
  5
158
100
AcDbEntity
  8
Layer_1
 62
7
100
AcDbPolyline
 90
3
 70
0
 10
193.659593
 20
726.445718
 30
0.0
 10
193.659593
 20
728.893718
 30
0.0
 10
193.083593
 20
728.893718
 30
0.0
  0
SPLINE
  5
159
100
AcDbEntity
  8
Layer_1
 62
7
100
AcDbSpline
 70
8
 71
3
 72
8
 73
4
 74
0
 40
0
 40
0
 40
0
 40
0
 40
1
 40
1
 40
1
 40
1
 10
202.659593
 20
726.805718
 30
0.0
 10
202.659593
 20
723.829718
 30
0.0
 10
202.203593
 20
721.165718
 30
0.0
 10
201.291593
 20
718.813718
 30
0.0
  0
SPLINE
  5
15a
100
AcDbEntity
  8
Layer_1
 62
7
100
AcDbSpline
 70
8
 71
3
 72
8
 73
4
 74
0
 40
0
 40
0
 40
0
 40
0
 40
1
 40
1
 40
1
 40
1
 10
201.291593
 20
718.813718
 30
0.0
 10
200.379593
 20
716.413718
 30
0.0
 10
199.107593
 20
714.397718
 30
0.0
 10
197.475593
 20
712.765718
 30
0.0
  0
SPLINE
  5
15b
100
AcDbEntity
  8
Layer_1
 62
7
100
AcDbSpline
 70
8
 71
3
 72
8
 73
4
 74
0
 40
0
 40
0
 40
0
 40
0
 40
1
 40
1
 40
1
 40
1
 10
197.475593
 20
712.765718
 30
0.0
 10
195.843593
 20
711.085718
 30
0.0
 10
193.875593
 20
709.813718
 30
0.0
 10
191.571593
 20
708.949718
 30
0.0
  0
SPLINE
  5
15c
100
AcDbEntity
  8
Layer_1
 62
7
100
AcDbSpline
 70
8
 71
3
 72
8
 73
4
 74
0
 40
0
 40
0
 40
0
 40
0
 40
1
 40
1
 40
1
 40
1
 10
191.571593
 20
708.949718
 30
0.0
 10
189.315593
 20
708.037718
 30
0.0
 10
186.795593
 20
707.581718
 30
0.0
 10
184.011593
 20
707.581718
 30
0.0
  0
LWPOLYLINE
  5
15d
100
AcDbEntity
  8
Layer_1
 62
7
100
AcDbPolyline
 90
5
 70
0
 10
193.083593
 20
755.749718
 30
0.0
 10
193.659593
 20
755.749718
 30
0.0
 10
193.659593
 20
759.565715
 30
0.0
 10
202.659593
 20
759.565715
 30
0.0
 10
202.659593
 20
726.805718
 30
0.0
  0
SPLINE
  5
15e
100
AcDbEntity
  8
Layer_1
 62
7
100
AcDbSpline
 70
8
 71
3
 72
8
 73
4
 74
0
 40
0
 40
0
 40
0
 40
0
 40
1
 40
1
 40
1
 40
1
 10
184.371593
 20
732.421718
 30
0.0
 10
185.523593
 20
732.421718
 30
0.0
 10
186.651593
 20
732.637718
 30
0.0
 10
187.755593
 20
733.069718
 30
0.0
  0
SPLINE
  5
15f
100
AcDbEntity
  8
Layer_1
 62
7
100
AcDbSpline
 70
8
 71
3
 72
8
 73
4
 74
0
 40
0
 40
0
 40
0
 40
0
 40
1
 40
1
 40
1
 40
1
 10
187.755593
 20
733.069718
 30
0.0
 10
188.907593
 20
733.501718
 30
0.0
 10
189.915593
 20
734.125718
 30
0.0
 10
190.779593
 20
734.941718
 30
0.0
  0
SPLINE
  5
160
100
AcDbEntity
  8
Layer_1
 62
7
100
AcDbSpline
 70
8
 71
3
 72
8
 73
4
 74
0
 40
0
 40
0
 40
0
 40
0
 40
1
 40
1
 40
1
 40
1
 10
190.779593
 20
734.941718
 30
0.0
 10
191.643593
 20
735.805718
 30
0.0
 10
192.339593
 20
736.837718
 30
0.0
 10
192.867593
 20
738.037718
 30
0.0
  0
SPLINE
  5
161
100
AcDbEntity
  8
Layer_1
 62
7
100
AcDbSpline
 70
8
 71
3
 72
8
 73
4
 74
0
 40
0
 40
0
 40
0
 40
0
 40
1
 40
1
 40
1
 40
1
 10
192.867593
 20
738.037718
 30
0.0
 10
193.395593
 20
739.285718
 30
0.0
 10
193.659593
 20
740.701718
 30
0.0
 10
193.659593
 20
742.285718
 30
0.0
  0
SPLINE
  5
162
100
AcDbEntity
  8
Layer_1
 62
7
100
AcDbSpline
 70
8
 71
3
 72
8
 73
4
 74
0
 40
0
 40
0
 40
0
 40
0
 40
1
 40
1
 40
1
 40
1
 10
193.659593
 20
742.285718
 30
0.0
 10
193.659593
 20
743.869718
 30
0.0
 10
193.395593
 20
745.285718
 30
0.0
 10
192.867593
 20
746.533718
 30
0.0
  0
SPLINE
  5
163
100
AcDbEntity
  8
Layer_1
 62
7
100
AcDbSpline
 70
8
 71
3
 72
8
 73
4
 74
0
 40
0
 40
0
 40
0
 40
0
 40
1
 40
1
 40
1
 40
1
 10
192.867593
 20
746.533718
 30
0.0
 10
192.339593
 20
747.781718
 30
0.0
 10
191.643593
 20
748.813718
 30
0.0
 10
190.779593
 20
749.629718
 30
0.0
  0
SPLINE
  5
164
100
AcDbEntity
  8
Layer_1
 62
7
100
AcDbSpline
 70
8
 71
3
 72
8
 73
4
 74
0
 40
0
 40
0
 40
0
 40
0
 40
1
 40
1
 40
1
 40
1
 10
190.779593
 20
749.629718
 30
0.0
 10
189.915593
 20
750.493718
 30
0.0
 10
188.907593
 20
751.141718
 30
0.0
 10
187.755593
 20
751.573718
 30
0.0
  0
SPLINE
  5
165
100
AcDbEntity
  8
Layer_1
 62
7
100
AcDbSpline
 70
8
 71
3
 72
8
 73
4
 74
0
 40
0
 40
0
 40
0
 40
0
 40
1
 40
1
 40
1
 40
1
 10
187.755593
 20
751.573718
 30
0.0
 10
186.651593
 20
752.005718
 30
0.0
 10
185.523593
 20
752.221718
 30
0.0
 10
184.371593
 20
752.221718
 30
0.0
  0
SPLINE
  5
166
100
AcDbEntity
  8
Layer_1
 62
7
100
AcDbSpline
 70
8
 71
3
 72
8
 73
4
 74
0
 40
0
 40
0
 40
0
 40
0
 40
1
 40
1
 40
1
 40
1
 10
184.371593
 20
752.221718
 30
0.0
 10
183.219593
 20
752.221718
 30
0.0
 10
182.091593
 20
752.005718
 30
0.0
 10
180.987593
 20
751.573718
 30
0.0
  0
SPLINE
  5
167
100
AcDbEntity
  8
Layer_1
 62
7
100
AcDbSpline
 70
8
 71
3
 72
8
 73
4
 74
0
 40
0
 40
0
 40
0
 40
0
 40
1
 40
1
 40
1
 40
1
 10
180.987593
 20
751.573718
 30
0.0
 10
179.883593
 20
751.141718
 30
0.0
 10
178.899593
 20
750.493718
 30
0.0
 10
178.035593
 20
749.629718
 30
0.0
  0
SPLINE
  5
168
100
AcDbEntity
  8
Layer_1
 62
7
100
AcDbSpline
 70
8
 71
3
 72
8
 73
4
 74
0
 40
0
 40
0
 40
0
 40
0
 40
1
 40
1
 40
1
 40
1
 10
178.035593
 20
749.629718
 30
0.0
 10
177.171593
 20
748.765718
 30
0.0
 10
176.475593
 20
747.709718
 30
0.0
 10
175.947593
 20
746.461718
 30
0.0
  0
SPLINE
  5
169
100
AcDbEntity
  8
Layer_1
 62
7
100
AcDbSpline
 70
8
 71
3
 72
8
 73
4
 74
0
 40
0
 40
0
 40
0
 40
0
 40
1
 40
1
 40
1
 40
1
 10
175.947593
 20
746.461718
 30
0.0
 10
175.419593
 20
745.261718
 30
0.0
 10
175.155593
 20
743.869718
 30
0.0
 10
175.155593
 20
742.285718
 30
0.0
  0
SPLINE
  5
16a
100
AcDbEntity
  8
Layer_1
 62
7
100
AcDbSpline
 70
8
 71
3
 72
8
 73
4
 74
0
 40
0
 40
0
 40
0
 40
0
 40
1
 40
1
 40
1
 40
1
 10
175.155593
 20
742.285718
 30
0.0
 10
175.155593
 20
740.701718
 30
0.0
 10
175.419593
 20
739.285718
 30
0.0
 10
175.947593
 20
738.037718
 30
0.0
  0
SPLINE
  5
16b
100
AcDbEntity
  8
Layer_1
 62
7
100
AcDbSpline
 70
8
 71
3
 72
8
 73
4
 74
0
 40
0
 40
0
 40
0
 40
0
 40
1
 40
1
 40
1
 40
1
 10
175.947593
 20
738.037718
 30
0.0
 10
176.475593
 20
736.837718
 30
0.0
 10
177.171593
 20
735.805718
 30
0.0
 10
178.035593
 20
734.941718
 30
0.0
  0
SPLINE
  5
16c
100
AcDbEntity
  8
Layer_1
 62
7
100
AcDbSpline
 70
8
 71
3
 72
8
 73
4
 74
0
 40
0
 40
0
 40
0
 40
0
 40
1
 40
1
 40
1
 40
1
 10
178.035593
 20
734.941718
 30
0.0
 10
178.899593
 20
734.125718
 30
0.0
 10
179.883593
 20
733.501718
 30
0.0
 10
180.987593
 20
733.069718
 30
0.0
  0
SPLINE
  5
16d
100
AcDbEntity
  8
Layer_1
 62
7
100
AcDbSpline
 70
8
 71
3
 72
8
 73
4
 74
0
 40
0
 40
0
 40
0
 40
0
 40
1
 40
1
 40
1
 40
1
 10
180.987593
 20
733.069718
 30
0.0
 10
182.091593
 20
732.637718
 30
0.0
 10
183.219593
 20
732.421718
 30
0.0
 10
184.371593
 20
732.421718
 30
0.0
  0
LWPOLYLINE
  5
16e
100
AcDbEntity
  8
Layer_1
 62
7
100
AcDbPolyline
 90
1
 70
1
 10
184.011593
 20
707.581718
 30
0.0
  0
LWPOLYLINE
  5
16f
100
AcDbEntity
  8
Layer_1
 62
7
100
AcDbPolyline
 90
1
 70
1
 10
184.371593
 20
732.421718
 30
0.0
  0
SPLINE
  5
170
100
AcDbEntity
  8
Layer_1
 62
7
100
AcDbSpline
 70
8
 71
3
 72
8
 73
4
 74
0
 40
0
 40
0
 40
0
 40
0
 40
1
 40
1
 40
1
 40
1
 10
261.194462
 20
732.781718
 30
0.0
 10
259.562462
 20
729.901718
 30
0.0
 10
257.354462
 20
727.573718
 30
0.0
 10
254.570462
 20
725.797718
 30
0.0
  0
SPLINE
  5
171
100
AcDbEntity
  8
Layer_1
 62
7
100
AcDbSpline
 70
8
 71
3
 72
8
 73
4
 74
0
 40
0
 40
0
 40
0
 40
0
 40
1
 40
1
 40
1
 40
1
 10
254.570462
 20
725.797718
 30
0.0
 10
251.834462
 20
724.021718
 30
0.0
 10
248.474462
 20
723.133718
 30
0.0
 10
244.490462
 20
723.133718
 30
0.0
  0
SPLINE
  5
172
100
AcDbEntity
  8
Layer_1
 62
7
100
AcDbSpline
 70
8
 71
3
 72
8
 73
4
 74
0
 40
0
 40
0
 40
0
 40
0
 40
1
 40
1
 40
1
 40
1
 10
244.490462
 20
723.133718
 30
0.0
 10
241.802462
 20
723.133718
 30
0.0
 10
239.306462
 20
723.589718
 30
0.0
 10
237.002462
 20
724.501718
 30
0.0
  0
SPLINE
  5
173
100
AcDbEntity
  8
Layer_1
 62
7
100
AcDbSpline
 70
8
 71
3
 72
8
 73
4
 74
0
 40
0
 40
0
 40
0
 40
0
 40
1
 40
1
 40
1
 40
1
 10
237.002462
 20
724.501718
 30
0.0
 10
234.746462
 20
725.461718
 30
0.0
 10
232.778462
 20
726.781718
 30
0.0
 10
231.098462
 20
728.461718
 30
0.0
  0
SPLINE
  5
174
100
AcDbEntity
  8
Layer_1
 62
7
100
AcDbSpline
 70
8
 71
3
 72
8
 73
4
 74
0
 40
0
 40
0
 40
0
 40
0
 40
1
 40
1
 40
1
 40
1
 10
231.098462
 20
728.461718
 30
0.0
 10
229.418462
 20
730.141718
 30
0.0
 10
228.098462
 20
732.109718
 30
0.0
 10
227.138462
 20
734.365718
 30
0.0
  0
SPLINE
  5
175
100
AcDbEntity
  8
Layer_1
 62
7
100
AcDbSpline
 70
8
 71
3
 72
8
 73
4
 74
0
 40
0
 40
0
 40
0
 40
0
 40
1
 40
1
 40
1
 40
1
 10
227.138462
 20
734.365718
 30
0.0
 10
226.226462
 20
736.669718
 30
0.0
 10
225.770462
 20
739.189718
 30
0.0
 10
225.770462
 20
741.925718
 30
0.0
  0
SPLINE
  5
176
100
AcDbEntity
  8
Layer_1
 62
7
100
AcDbSpline
 70
8
 71
3
 72
8
 73
4
 74
0
 40
0
 40
0
 40
0
 40
0
 40
1
 40
1
 40
1
 40
1
 10
225.770462
 20
741.925718
 30
0.0
 10
225.770462
 20
744.469718
 30
0.0
 10
226.226462
 20
746.869718
 30
0.0
 10
227.138462
 20
749.125718
 30
0.0
  0
SPLINE
  5
177
100
AcDbEntity
  8
Layer_1
 62
7
100
AcDbSpline
 70
8
 71
3
 72
8
 73
4
 74
0
 40
0
 40
0
 40
0
 40
0
 40
1
 40
1
 40
1
 40
1
 10
227.138462
 20
749.125718
 30
0.0
 10
228.050462
 20
751.429718
 30
0.0
 10
229.322462
 20
753.421718
 30
0.0
 10
230.954462
 20
755.101718
 30
0.0
  0
SPLINE
  5
178
100
AcDbEntity
  8
Layer_1
 62
7
100
AcDbSpline
 70
8
 71
3
 72
8
 73
4
 74
0
 40
0
 40
0
 40
0
 40
0
 40
1
 40
1
 40
1
 40
1
 10
230.954462
 20
755.101718
 30
0.0
 10
232.586462
 20
756.829716
 30
0.0
 10
234.506462
 20
758.197715
 30
0.0
 10
236.714462
 20
759.205715
 30
0.0
  0
SPLINE
  5
179
100
AcDbEntity
  8
Layer_1
 62
7
100
AcDbSpline
 70
8
 71
3
 72
8
 73
4
 74
0
 40
0
 40
0
 40
0
 40
0
 40
1
 40
1
 40
1
 40
1
 10
236.714462
 20
759.205715
 30
0.0
 10
238.970462
 20
760.213715
 30
0.0
 10
241.442462
 20
760.717715
 30
0.0
 10
244.130462
 20
760.717715
 30
0.0
  0
SPLINE
  5
17a
100
AcDbEntity
  8
Layer_1
 62
7
100
AcDbSpline
 70
8
 71
3
 72
8
 73
4
 74
0
 40
0
 40
0
 40
0
 40
0
 40
1
 40
1
 40
1
 40
1
 10
244.130462
 20
760.717715
 30
0.0
 10
246.962462
 20
760.717715
 30
0.0
 10
249.482462
 20
760.237715
 30
0.0
 10
251.690462
 20
759.277715
 30
0.0
  0
SPLINE
  5
17b
100
AcDbEntity
  8
Layer_1
 62
7
100
AcDbSpline
 70
8
 71
3
 72
8
 73
4
 74
0
 40
0
 40
0
 40
0
 40
0
 40
1
 40
1
 40
1
 40
1
 10
251.690462
 20
759.277715
 30
0.0
 10
253.898462
 20
758.365715
 30
0.0
 10
255.746462
 20
757.069716
 30
0.0
 10
257.234462
 20
755.389718
 30
0.0
  0
SPLINE
  5
17c
100
AcDbEntity
  8
Layer_1
 62
7
100
AcDbSpline
 70
8
 71
3
 72
8
 73
4
 74
0
 40
0
 40
0
 40
0
 40
0
 40
1
 40
1
 40
1
 40
1
 10
257.234462
 20
755.389718
 30
0.0
 10
258.722462
 20
753.757718
 30
0.0
 10
259.850462
 20
751.813718
 30
0.0
 10
260.618462
 20
749.557718
 30
0.0
  0
SPLINE
  5
17d
100
AcDbEntity
  8
Layer_1
 62
7
100
AcDbSpline
 70
8
 71
3
 72
8
 73
4
 74
0
 40
0
 40
0
 40
0
 40
0
 40
1
 40
1
 40
1
 40
1
 10
260.618462
 20
749.557718
 30
0.0
 10
261.386462
 20
747.301718
 30
0.0
 10
261.770462
 20
744.853718
 30
0.0
 10
261.770462
 20
742.213718
 30
0.0
  0
SPLINE
  5
17e
100
AcDbEntity
  8
Layer_1
 62
7
100
AcDbSpline
 70
8
 71
3
 72
8
 73
4
 74
0
 40
0
 40
0
 40
0
 40
0
 40
1
 40
1
 40
1
 40
1
 10
261.770462
 20
742.213718
 30
0.0
 10
261.770462
 20
741.877718
 30
0.0
 10
261.770462
 20
741.589718
 30
0.0
 10
261.770462
 20
741.349718
 30
0.0
  0
SPLINE
  5
17f
100
AcDbEntity
  8
Layer_1
 62
7
100
AcDbSpline
 70
8
 71
3
 72
8
 73
4
 74
0
 40
0
 40
0
 40
0
 40
0
 40
1
 40
1
 40
1
 40
1
 10
261.770462
 20
741.349718
 30
0.0
 10
261.722462
 20
741.061718
 30
0.0
 10
261.698462
 20
740.797718
 30
0.0
 10
261.698462
 20
740.557718
 30
0.0
  0
SPLINE
  5
180
100
AcDbEntity
  8
Layer_1
 62
7
100
AcDbSpline
 70
8
 71
3
 72
8
 73
4
 74
0
 40
0
 40
0
 40
0
 40
0
 40
1
 40
1
 40
1
 40
1
 10
261.698462
 20
740.557718
 30
0.0
 10
261.650462
 20
740.317718
 30
0.0
 10
261.626462
 20
740.053718
 30
0.0
 10
261.626462
 20
739.765718
 30
0.0
  0
LWPOLYLINE
  5
181
100
AcDbEntity
  8
Layer_1
 62
7
100
AcDbPolyline
 90
4
 70
1
 10
210.770836
 20
724.285718
 30
0.0
 10
210.770836
 20
775.837715
 30
0.0
 10
220.202836
 20
775.837715
 30
0.0
 10
220.202836
 20
724.285718
 30
0.0
  0
SPLINE
  5
182
100
AcDbEntity
  8
Layer_1
 62
7
100
AcDbSpline
 70
8
 71
3
 72
8
 73
4
 74
0
 40
0
 40
0
 40
0
 40
0
 40
1
 40
1
 40
1
 40
1
 10
235.058462
 20
739.765718
 30
0.0
 10
235.250462
 20
738.325718
 30
0.0
 10
235.634462
 20
737.077718
 30
0.0
 10
236.210462
 20
736.021718
 30
0.0
  0
SPLINE
  5
183
100
AcDbEntity
  8
Layer_1
 62
7
100
AcDbSpline
 70
8
 71
3
 72
8
 73
4
 74
0
 40
0
 40
0
 40
0
 40
0
 40
1
 40
1
 40
1
 40
1
 10
236.210462
 20
736.021718
 30
0.0
 10
236.834462
 20
735.013718
 30
0.0
 10
237.578462
 20
734.149718
 30
0.0
 10
238.442462
 20
733.429718
 30
0.0
  0
SPLINE
  5
184
100
AcDbEntity
  8
Layer_1
 62
7
100
AcDbSpline
 70
8
 71
3
 72
8
 73
4
 74
0
 40
0
 40
0
 40
0
 40
0
 40
1
 40
1
 40
1
 40
1
 10
238.442462
 20
733.429718
 30
0.0
 10
239.354462
 20
732.757718
 30
0.0
 10
240.338462
 20
732.253718
 30
0.0
 10
241.394462
 20
731.917718
 30
0.0
  0
SPLINE
  5
185
100
AcDbEntity
  8
Layer_1
 62
7
100
AcDbSpline
 70
8
 71
3
 72
8
 73
4
 74
0
 40
0
 40
0
 40
0
 40
0
 40
1
 40
1
 40
1
 40
1
 10
241.394462
 20
731.917718
 30
0.0
 10
242.450462
 20
731.629718
 30
0.0
 10
243.530462
 20
731.485718
 30
0.0
 10
244.634462
 20
731.485718
 30
0.0
  0
SPLINE
  5
186
100
AcDbEntity
  8
Layer_1
 62
7
100
AcDbSpline
 70
8
 71
3
 72
8
 73
4
 74
0
 40
0
 40
0
 40
0
 40
0
 40
1
 40
1
 40
1
 40
1
 10
244.634462
 20
731.485718
 30
0.0
 10
246.794462
 20
731.485718
 30
0.0
 10
248.570462
 20
731.965718
 30
0.0
 10
249.962462
 20
732.925718
 30
0.0
  0
SPLINE
  5
187
100
AcDbEntity
  8
Layer_1
 62
7
100
AcDbSpline
 70
8
 71
3
 72
8
 73
4
 74
0
 40
0
 40
0
 40
0
 40
0
 40
1
 40
1
 40
1
 40
1
 10
249.962462
 20
732.925718
 30
0.0
 10
251.402462
 20
733.933718
 30
0.0
 10
252.530462
 20
735.181718
 30
0.0
 10
253.346462
 20
736.669718
 30
0.0
  0
LWPOLYLINE
  5
188
100
AcDbEntity
  8
Layer_1
 62
7
100
AcDbPolyline
 90
2
 70
0
 10
261.626462
 20
739.765718
 30
0.0
 10
235.058462
 20
739.765718
 30
0.0
  0
SPLINE
  5
189
100
AcDbEntity
  8
Layer_1
 62
7
100
AcDbSpline
 70
8
 71
3
 72
8
 73
4
 74
0
 40
0
 40
0
 40
0
 40
0
 40
1
 40
1
 40
1
 40
1
 10
252.626462
 20
746.461718
 30
0.0
 10
252.578462
 20
747.085718
 30
0.0
 10
252.362462
 20
747.781718
 30
0.0
 10
251.978462
 20
748.549718
 30
0.0
  0
SPLINE
  5
18a
100
AcDbEntity
  8
Layer_1
 62
7
100
AcDbSpline
 70
8
 71
3
 72
8
 73
4
 74
0
 40
0
 40
0
 40
0
 40
0
 40
1
 40
1
 40
1
 40
1
 10
251.978462
 20
748.549718
 30
0.0
 10
251.642462
 20
749.317718
 30
0.0
 10
251.114462
 20
750.037718
 30
0.0
 10
250.394462
 20
750.709718
 30
0.0
  0
SPLINE
  5
18b
100
AcDbEntity
  8
Layer_1
 62
7
100
AcDbSpline
 70
8
 71
3
 72
8
 73
4
 74
0
 40
0
 40
0
 40
0
 40
0
 40
1
 40
1
 40
1
 40
1
 10
250.394462
 20
750.709718
 30
0.0
 10
249.722462
 20
751.381718
 30
0.0
 10
248.858462
 20
751.933718
 30
0.0
 10
247.802462
 20
752.365718
 30
0.0
  0
SPLINE
  5
18c
100
AcDbEntity
  8
Layer_1
 62
7
100
AcDbSpline
 70
8
 71
3
 72
8
 73
4
 74
0
 40
0
 40
0
 40
0
 40
0
 40
1
 40
1
 40
1
 40
1
 10
247.802462
 20
752.365718
 30
0.0
 10
246.794462
 20
752.797718
 30
0.0
 10
245.570462
 20
753.013718
 30
0.0
 10
244.130462
 20
753.013718
 30
0.0
  0
SPLINE
  5
18d
100
AcDbEntity
  8
Layer_1
 62
7
100
AcDbSpline
 70
8
 71
3
 72
8
 73
4
 74
0
 40
0
 40
0
 40
0
 40
0
 40
1
 40
1
 40
1
 40
1
 10
244.130462
 20
753.013718
 30
0.0
 10
242.114462
 20
753.013718
 30
0.0
 10
240.338462
 20
752.437718
 30
0.0
 10
238.802462
 20
751.285718
 30
0.0
  0
SPLINE
  5
18e
100
AcDbEntity
  8
Layer_1
 62
7
100
AcDbSpline
 70
8
 71
3
 72
8
 73
4
 74
0
 40
0
 40
0
 40
0
 40
0
 40
1
 40
1
 40
1
 40
1
 10
238.802462
 20
751.285718
 30
0.0
 10
237.266462
 20
750.133718
 30
0.0
 10
236.186462
 20
748.525718
 30
0.0
 10
235.562462
 20
746.461718
 30
0.0
  0
LWPOLYLINE
  5
18f
100
AcDbEntity
  8
Layer_1
 62
7
100
AcDbPolyline
 90
2
 70
0
 10
253.346462
 20
736.669718
 30
0.0
 10
261.194462
 20
732.781718
 30
0.0
  0
LWPOLYLINE
  5
190
100
AcDbEntity
  8
Layer_1
 62
7
100
AcDbPolyline
 90
2
 70
0
 10
235.562462
 20
746.461718
 30
0.0
 10
252.626462
 20
746.461718
 30
0.0
  0
ENDSEC
  0
SECTION
  2
OBJECTS
  0
DICTIONARY
  5
C
330
0
100
AcDbDictionary
  3
ACAD_GROUP
350
D
  3
ACAD_MLINESTYLE
350
17
  0
DICTIONARY
  5
D
330
C
100
AcDbDictionary
  0
DICTIONARY
  5
1A
330
C
100
AcDbDictionary
  0
DICTIONARY
  5
17
330
C
100
AcDbDictionary
  3
STANDARD
350
18
  0
DICTIONARY
  5
19
330
C
100
AcDbDictionary
  0
ENDSEC
  0
EOF
