  0
SECTION
  2
BLOCKS
  0
ENDSEC
  0
SECTION
  2
ENTITIES
  0
LINE
  8
0
 10
20.673
 20
1.90199
 11
18.172
 21
4.89799
  0
LINE
  8
0
 10
18.172
 20
4.89799
 11
20.84
 21
9.09299
  0
LINE
  8
0
 10
20.84
 20
9.09299
 11
17.672
 21
11.09
  0
LINE
  8
0
 10
17.672
 20
11.09
 11
15.705
 21
7.894
  0
LINE
  8
0
 10
15.705
 20
7.894
 11
8.536
 21
16.616
  0
LINE
  8
0
 10
8.536
 20
16.616
 11
8.34637
 21
16.8624
  0
LINE
  8
0
 10
8.34637
 20
16.8624
 11
8.17749
 21
17.1025
  0
LINE
  8
0
 10
8.17749
 20
17.1025
 11
8.02937
 21
17.3364
  0
LINE
  8
0
 10
8.02937
 20
17.3364
 11
7.90199
 21
17.564
  0
LINE
  8
0
 10
7.90199
 20
17.564
 11
7.80005
 21
17.7942
  0
LINE
  8
0
 10
7.80005
 20
17.7942
 11
7.72725
 21
18.0347
  0
LINE
  8
0
 10
7.72725
 20
18.0347
 11
7.68355
 21
18.2857
  0
LINE
  8
0
 10
7.68355
 20
18.2857
 11
7.66899
 21
18.547
  0
LINE
  8
0
 10
7.66899
 20
18.547
 11
7.70444
 21
18.9608
  0
LINE
  8
0
 10
7.70444
 20
18.9608
 11
7.81075
 21
19.3372
  0
LINE
  8
0
 10
7.81075
 20
19.3372
 11
7.98793
 21
19.6763
  0
LINE
  8
0
 10
7.98793
 20
19.6763
 11
8.23599
 21
19.978
  0
LINE
  8
0
 10
8.23599
 20
19.978
 11
8.54449
 21
20.2256
  0
LINE
  8
0
 10
8.54449
 20
20.2256
 11
8.903
 21
20.4025
  0
LINE
  8
0
 10
8.903
 20
20.4025
 11
9.31149
 21
20.5086
  0
LINE
  8
0
 10
9.31149
 20
20.5086
 11
9.76999
 21
20.544
  0
LINE
  8
0
 10
9.76999
 20
20.544
 11
10.2136
 21
20.5075
  0
LINE
  8
0
 10
10.2136
 20
20.5075
 11
10.6115
 21
20.398
  0
LINE
  8
0
 10
10.6115
 20
20.398
 11
10.9636
 21
20.2155
  0
LINE
  8
0
 10
10.9636
 20
20.2155
 11
11.27
 21
19.96
  0
LINE
  8
0
 10
11.27
 20
19.96
 11
11.5347
 21
19.6549
  0
LINE
  8
0
 10
11.5347
 20
19.6549
 11
11.762
 21
19.3227
  0
LINE
  8
0
 10
11.762
 20
19.3227
 11
11.9517
 21
18.9634
  0
LINE
  8
0
 10
11.9517
 20
18.9634
 11
12.104
 21
18.577
  0
LINE
  8
0
 10
12.104
 20
18.577
 11
15.638
 21
20.444
  0
LINE
  8
0
 10
15.638
 20
20.444
 11
15.2704
 21
21.2589
  0
LINE
  8
0
 10
15.2704
 20
21.2589
 11
14.8005
 21
22.0007
  0
LINE
  8
0
 10
14.8005
 20
22.0007
 11
14.2284
 21
22.6694
  0
LINE
  8
0
 10
14.2284
 20
22.6694
 11
13.554
 21
23.265
  0
LINE
  8
0
 10
13.554
 20
23.265
 11
12.7696
 21
23.7546
  0
LINE
  8
0
 10
12.7696
 20
23.7546
 11
11.8662
 21
24.1042
  0
LINE
  8
0
 10
11.8662
 20
24.1042
 11
10.8441
 21
24.3141
  0
LINE
  8
0
 10
10.8441
 20
24.3141
 11
9.70299
 21
24.384
  0
LINE
  8
0
 10
9.70299
 20
24.384
 11
9.03406
 21
24.3548
  0
LINE
  8
0
 10
9.03406
 20
24.3548
 11
8.39424
 21
24.2672
  0
LINE
  8
0
 10
8.39424
 20
24.2672
 11
7.78355
 21
24.1213
  0
LINE
  8
0
 10
7.78355
 20
24.1213
 11
7.202
 21
23.917
  0
LINE
  8
0
 10
7.202
 20
23.917
 11
6.65417
 21
23.6632
  0
LINE
  8
0
 10
6.65417
 20
23.6632
 11
6.14374
 21
23.3677
  0
LINE
  8
0
 10
6.14374
 20
23.3677
 11
5.67068
 21
23.0307
  0
LINE
  8
0
 10
5.67068
 20
23.0307
 11
5.23499
 21
22.652
  0
LINE
  8
0
 10
5.23499
 20
22.652
 11
4.842
 21
22.2347
  0
LINE
  8
0
 10
4.842
 20
22.2347
 11
4.49699
 21
21.782
  0
LINE
  8
0
 10
4.49699
 20
21.782
 11
4.2
 21
21.2937
  0
LINE
  8
0
 10
4.2
 20
21.2937
 11
3.95099
 21
20.77
  0
LINE
  8
0
 10
3.95099
 20
20.77
 11
3.75412
 21
20.2196
  0
LINE
  8
0
 10
3.75412
 20
20.2196
 11
3.61349
 21
19.6505
  0
LINE
  8
0
 10
3.61349
 20
19.6505
 11
3.52911
 21
19.0626
  0
LINE
  8
0
 10
3.52911
 20
19.0626
 11
3.50099
 21
18.456
  0
LINE
  8
0
 10
3.50099
 20
18.456
 11
3.52599
 21
17.9457
  0
LINE
  8
0
 10
3.52599
 20
17.9457
 11
3.601
 21
17.448
  0
LINE
  8
0
 10
3.601
 20
17.448
 11
3.726
 21
16.9627
  0
LINE
  8
0
 10
3.726
 20
16.9627
 11
3.90099
 21
16.49
  0
LINE
  8
0
 10
3.90099
 20
16.49
 11
4.11562
 21
16.0281
  0
LINE
  8
0
 10
4.11562
 20
16.0281
 11
4.3595
 21
15.5745
  0
LINE
  8
0
 10
4.3595
 20
15.5745
 11
4.63261
 21
15.1291
  0
LINE
  8
0
 10
4.63261
 20
15.1291
 11
4.935
 21
14.692
  0
LINE
  8
0
 10
4.935
 20
14.692
 11
4.10043
 21
14.0261
  0
LINE
  8
0
 10
4.10043
 20
14.0261
 11
3.36374
 21
13.2935
  0
LINE
  8
0
 10
3.36374
 20
13.2935
 11
2.72493
 21
12.4941
  0
LINE
  8
0
 10
2.72493
 20
12.4941
 11
2.18399
 21
11.628
  0
LINE
  8
0
 10
2.18399
 20
11.628
 11
1.75349
 21
10.7165
  0
LINE
  8
0
 10
1.75349
 20
10.7165
 11
1.446
 21
9.78
  0
LINE
  8
0
 10
1.446
 20
9.78
 11
1.26149
 21
8.8185
  0
LINE
  8
0
 10
1.26149
 20
8.8185
 11
1.2
 21
7.83199
  0
LINE
  8
0
 10
1.2
 20
7.83199
 11
1.24268
 21
6.93474
  0
LINE
  8
0
 10
1.24268
 20
6.93474
 11
1.37074
 21
6.075
  0
LINE
  8
0
 10
1.37074
 20
6.075
 11
1.58418
 21
5.25275
  0
LINE
  8
0
 10
1.58418
 20
5.25275
 11
1.883
 21
4.46799
  0
LINE
  8
0
 10
1.883
 20
4.46799
 11
2.25725
 21
3.728
  0
LINE
  8
0
 10
2.25725
 20
3.728
 11
2.696
 21
3.03999
  0
LINE
  8
0
 10
2.696
 20
3.03999
 11
3.19925
 21
2.40399
  0
LINE
  8
0
 10
3.19925
 20
2.40399
 11
3.767
 21
1.81999
  0
LINE
  8
0
 10
3.767
 20
1.81999
 11
4.39349
 21
1.29324
  0
LINE
  8
0
 10
4.39349
 20
1.29324
 11
5.07199
 21
0.828995
  0
LINE
  8
0
 10
5.07199
 20
0.828995
 11
5.80249
 21
0.427246
  0
LINE
  8
0
 10
5.80249
 20
0.427246
 11
6.58499
 21
0.0879974
  0
LINE
  8
0
 10
6.58499
 20
0.0879974
 11
7.40956
 21
-0.181488
  0
LINE
  8
0
 10
7.40956
 20
-0.181488
 11
8.26524
 21
-0.373993
  0
LINE
  8
0
 10
8.26524
 20
-0.373993
 11
9.15205
 21
-0.489487
  0
LINE
  8
0
 10
9.15205
 20
-0.489487
 11
10.07
 21
-0.528
  0
LINE
  8
0
 10
10.07
 20
-0.528
 11
11.6766
 21
-0.396683
  0
LINE
  8
0
 10
11.6766
 20
-0.396683
 11
13.1625
 21
-0.00274658
  0
LINE
  8
0
 10
13.1625
 20
-0.00274658
 11
14.5276
 21
0.653809
  0
LINE
  8
0
 10
14.5276
 20
0.653809
 11
15.772
 21
1.573
  0
LINE
  8
0
 10
15.772
 20
1.573
 11
17.506
 21
-0.528
  0
LINE
  8
0
 10
17.506
 20
-0.528
 11
20.673
 21
1.90199
  0
LINE
  8
0
 10
9.79169
 20
3.42781
 11
9.32375
 21
3.48724
  0
LINE
  8
0
 10
9.32375
 20
3.48724
 11
8.86618
 21
3.5863
  0
LINE
  8
0
 10
8.86618
 20
3.5863
 11
8.41899
 21
3.72499
  0
LINE
  8
0
 10
8.41899
 20
3.72499
 11
7.98993
 21
3.90118
  0
LINE
  8
0
 10
7.98993
 20
3.90118
 11
7.58574
 21
4.11275
  0
LINE
  8
0
 10
7.58574
 20
4.11275
 11
7.20644
 21
4.35968
  0
LINE
  8
0
 10
7.20644
 20
4.35968
 11
6.85199
 21
4.642
  0
LINE
  8
0
 10
6.85199
 20
4.642
 11
6.52812
 21
4.95761
  0
LINE
  8
0
 10
6.52812
 20
4.95761
 11
6.23949
 21
5.30449
  0
LINE
  8
0
 10
6.23949
 20
5.30449
 11
5.98611
 21
5.68262
  0
LINE
  8
0
 10
5.98611
 20
5.68262
 11
5.76799
 21
6.092
  0
LINE
  8
0
 10
5.76799
 20
6.092
 11
5.59299
 21
6.53099
  0
LINE
  8
0
 10
5.59299
 20
6.53099
 11
5.46799
 21
6.99699
  0
LINE
  8
0
 10
5.46799
 20
6.99699
 11
5.39299
 21
7.48999
  0
LINE
  8
0
 10
5.39299
 20
7.48999
 11
5.368
 21
8.00999
  0
LINE
  8
0
 10
5.368
 20
8.00999
 11
5.39925
 21
8.54037
  0
LINE
  8
0
 10
5.39925
 20
8.54037
 11
5.493
 21
9.0645
  0
LINE
  8
0
 10
5.493
 20
9.0645
 11
5.64925
 21
9.58237
  0
LINE
  8
0
 10
5.64925
 20
9.58237
 11
5.868
 21
10.094
  0
LINE
  8
0
 10
5.868
 20
10.094
 11
6.14549
 21
10.5827
  0
LINE
  8
0
 10
6.14549
 20
10.5827
 11
6.47699
 21
11.0317
  0
LINE
  8
0
 10
6.47699
 20
11.0317
 11
6.86249
 21
11.4412
  0
LINE
  8
0
 10
6.86249
 20
11.4412
 11
7.30199
 21
11.811
  0
LINE
  8
0
 10
7.30199
 20
11.811
 11
13.338
 21
4.508
  0
LINE
  8
0
 10
13.338
 20
4.508
 11
12.6959
 21
4.02675
  0
LINE
  8
0
 10
12.6959
 20
4.02675
 11
11.9705
 21
3.683
  0
LINE
  8
0
 10
11.9705
 20
3.683
 11
11.1619
 21
3.47675
  0
LINE
  8
0
 10
11.1619
 20
3.47675
 11
10.27
 21
3.40799
  0
LINE
  8
0
 10
10.27
 20
3.40799
 11
9.79169
 21
3.42781
  0
ENDSEC
  0
SECTION
  2
OBJECTS
  0
DICTIONARY
  0
ENDSEC
  0
EOF
