  0
SECTION
  2
BLOCKS
  0
ENDSEC
  0
SECTION
  2
ENTITIES
  0
LINE
  8
0
 10
4.935
 20
9.036
 11
5.01205
 21
10.0334
  0
LINE
  8
0
 10
5.01205
 20
10.0334
 11
5.24324
 21
10.9577
  0
LINE
  8
0
 10
5.24324
 20
10.9577
 11
5.62856
 21
11.8089
  0
LINE
  8
0
 10
5.62856
 20
11.8089
 11
6.168
 21
12.587
  0
LINE
  8
0
 10
6.168
 20
12.587
 11
6.82249
 21
13.2362
  0
LINE
  8
0
 10
6.82249
 20
13.2362
 11
7.55199
 21
13.7
  0
LINE
  8
0
 10
7.55199
 20
13.7
 11
8.35649
 21
13.9782
  0
LINE
  8
0
 10
8.35649
 20
13.9782
 11
9.23599
 21
14.071
  0
LINE
  8
0
 10
9.23599
 20
14.071
 11
10.9638
 21
13.8209
  0
LINE
  8
0
 10
10.9638
 20
13.8209
 11
12.2122
 21
13.0707
  0
LINE
  8
0
 10
12.2122
 20
13.0707
 11
12.9813
 21
11.8204
  0
LINE
  8
0
 10
12.9813
 20
11.8204
 11
13.271
 21
10.07
  0
LINE
  8
0
 10
13.271
 20
10.07
 11
13.271
 21
0
  0
LINE
  8
0
 10
13.271
 20
0
 11
16.339
 21
0
  0
LINE
  8
0
 10
16.339
 20
0
 11
16.339
 21
10.27
  0
LINE
  8
0
 10
16.339
 20
10.27
 11
16.2379
 21
11.7633
  0
LINE
  8
0
 10
16.2379
 20
11.7633
 11
15.9345
 21
13.0752
  0
LINE
  8
0
 10
15.9345
 20
13.0752
 11
15.4289
 21
14.2058
  0
LINE
  8
0
 10
15.4289
 20
14.2058
 11
14.721
 21
15.155
  0
LINE
  8
0
 10
14.721
 20
15.155
 11
13.826
 21
15.9062
  0
LINE
  8
0
 10
13.826
 20
15.9062
 11
12.758
 21
16.4427
  0
LINE
  8
0
 10
12.758
 20
16.4427
 11
11.517
 21
16.7647
  0
LINE
  8
0
 10
11.517
 20
16.7647
 11
10.103
 21
16.872
  0
LINE
  8
0
 10
10.103
 20
16.872
 11
9.32674
 21
16.822
  0
LINE
  8
0
 10
9.32674
 20
16.822
 11
8.56499
 21
16.672
  0
LINE
  8
0
 10
8.56499
 20
16.672
 11
7.81775
 21
16.422
  0
LINE
  8
0
 10
7.81775
 20
16.422
 11
7.08499
 21
16.072
  0
LINE
  8
0
 10
7.08499
 20
16.072
 11
6.40686
 21
15.6469
  0
LINE
  8
0
 10
6.40686
 20
15.6469
 11
5.82249
 21
15.1717
  0
LINE
  8
0
 10
5.82249
 20
15.1717
 11
5.33186
 21
14.6464
  0
LINE
  8
0
 10
5.33186
 20
14.6464
 11
4.935
 21
14.071
  0
LINE
  8
0
 10
4.935
 20
14.071
 11
4.80199
 21
14.071
  0
LINE
  8
0
 10
4.80199
 20
14.071
 11
4.80199
 21
16.339
  0
LINE
  8
0
 10
4.80199
 20
16.339
 11
1.86699
 21
16.339
  0
LINE
  8
0
 10
1.86699
 20
16.339
 11
1.86699
 21
0
  0
LINE
  8
0
 10
1.86699
 20
0
 11
4.935
 21
0
  0
LINE
  8
0
 10
4.935
 20
0
 11
4.935
 21
9.036
  0
ENDSEC
  0
SECTION
  2
OBJECTS
  0
DICTIONARY
  0
ENDSEC
  0
EOF
